<svg width="49" height="40" viewBox="0 0 49 40" fill="none" xmlns="http://www.w3.org/2000/svg">
<path d="M10 20H25V22.5H10V20ZM7.5 13.75H20V16.25H7.5V13.75Z" fill="#323232"/>
<path d="M42.3987 20.7575L38.6487 12.0075C38.5525 11.7826 38.3923 11.5909 38.1881 11.4562C37.9839 11.3216 37.7446 11.2499 37.5 11.25H33.75V8.75C33.75 8.41848 33.6183 8.10054 33.3839 7.86612C33.1495 7.6317 32.8315 7.5 32.5 7.5H12.5V10H31.25V25.695C30.6804 26.0257 30.1819 26.466 29.7833 26.9903C29.3847 27.5146 29.0938 28.1127 28.9275 28.75H21.0725C20.7682 27.5717 20.0447 26.5448 19.0375 25.8617C18.0303 25.1787 16.8085 24.8865 15.6012 25.0399C14.394 25.1932 13.2841 25.7816 12.4796 26.6947C11.6751 27.6078 11.2313 28.783 11.2313 30C11.2313 31.217 11.6751 32.3922 12.4796 33.3053C13.2841 34.2184 14.394 34.8068 15.6012 34.9601C16.8085 35.1135 18.0303 34.8213 19.0375 34.1383C20.0447 33.4552 20.7682 32.4283 21.0725 31.25H28.9275C29.1994 32.3228 29.8213 33.2743 30.6947 33.954C31.5681 34.6336 32.6433 35.0027 33.75 35.0027C34.8567 35.0027 35.9318 34.6336 36.8053 33.954C37.6787 33.2743 38.3006 32.3228 38.5725 31.25H41.25C41.5815 31.25 41.8995 31.1183 42.1339 30.8839C42.3683 30.6495 42.5 30.3315 42.5 30V21.25C42.5001 21.0807 42.4656 20.9131 42.3987 20.7575ZM16.25 32.5C15.7555 32.5 15.2722 32.3534 14.8611 32.0787C14.4499 31.804 14.1295 31.4135 13.9403 30.9567C13.7511 30.4999 13.7016 29.9972 13.798 29.5123C13.8945 29.0273 14.1326 28.5819 14.4822 28.2322C14.8319 27.8826 15.2773 27.6445 15.7623 27.548C16.2472 27.4516 16.7499 27.5011 17.2067 27.6903C17.6635 27.8795 18.054 28.1999 18.3287 28.6111C18.6034 29.0222 18.75 29.5055 18.75 30C18.7493 30.6628 18.4857 31.2983 18.017 31.767C17.5483 32.2357 16.9128 32.4993 16.25 32.5ZM33.75 13.75H36.675L39.355 20H33.75V13.75ZM33.75 32.5C33.2555 32.5 32.7722 32.3534 32.3611 32.0787C31.9499 31.804 31.6295 31.4135 31.4403 30.9567C31.2511 30.4999 31.2016 29.9972 31.298 29.5123C31.3945 29.0273 31.6326 28.5819 31.9822 28.2322C32.3319 27.8826 32.7773 27.6445 33.2623 27.548C33.7472 27.4516 34.2499 27.5011 34.7067 27.6903C35.1635 27.8795 35.554 28.1999 35.8287 28.6111C36.1034 29.0222 36.25 29.5055 36.25 30C36.2493 30.6628 35.9857 31.2983 35.517 31.767C35.0483 32.2357 34.4128 32.4993 33.75 32.5ZM40 28.75H38.5725C38.2971 27.6793 37.6743 26.7302 36.8015 26.0516C35.9288 25.3729 34.8555 25.0031 33.75 25V22.5H40V28.75Z" fill="#323232"/>
<path d="M12 13C15.0701 17.4346 19.2432 20.9144 22.7382 24.9087C25.5054 28.0713 28.2268 24.6872 30.5247 22.873C33.6513 20.4047 34.3778 15.8137 37.1915 13" stroke="#4DA4FD" stroke-opacity="0.3" stroke-width="23" stroke-linecap="round"/>
</svg>
