<svg width="49" height="40" viewBox="0 0 49 40" fill="none" xmlns="http://www.w3.org/2000/svg">
<g clip-path="url(#clip0_56_2123)">
<path d="M42.5 30C42.5 30.663 42.2366 31.2989 41.7678 31.7678C41.2989 32.2366 40.663 32.5 40 32.5H10C9.33696 32.5 8.70107 32.2366 8.23223 31.7678C7.76339 31.2989 7.5 30.663 7.5 30V15C7.5 14.337 7.76339 13.7011 8.23223 13.2322C8.70107 12.7634 9.33696 12.5 10 12.5H12.93C14.9181 12.4989 16.8244 11.7085 18.23 10.3025L20.305 8.2325C20.7725 7.76485 21.4062 7.50147 22.0675 7.5H27.9275C28.5905 7.50014 29.2263 7.76363 29.695 8.2325L31.765 10.3025C32.4616 10.9993 33.2886 11.552 34.1989 11.9291C35.1091 12.3061 36.0847 12.5001 37.07 12.5H40C40.663 12.5 41.2989 12.7634 41.7678 13.2322C42.2366 13.7011 42.5 14.337 42.5 15V30ZM10 10C8.67392 10 7.40215 10.5268 6.46447 11.4645C5.52678 12.4021 5 13.6739 5 15L5 30C5 31.3261 5.52678 32.5979 6.46447 33.5355C7.40215 34.4732 8.67392 35 10 35H40C41.3261 35 42.5979 34.4732 43.5355 33.5355C44.4732 32.5979 45 31.3261 45 30V15C45 13.6739 44.4732 12.4021 43.5355 11.4645C42.5979 10.5268 41.3261 10 40 10H37.07C35.744 9.99972 34.4725 9.47275 33.535 8.535L31.465 6.465C30.5275 5.52725 29.256 5.00028 27.93 5H22.07C20.744 5.00028 19.4725 5.52725 18.535 6.465L16.465 8.535C15.5275 9.47275 14.256 9.99972 12.93 10H10Z" fill="#323232"/>
<path d="M25 27.5C23.3424 27.5 21.7527 26.8415 20.5806 25.6694C19.4085 24.4973 18.75 22.9076 18.75 21.25C18.75 19.5924 19.4085 18.0027 20.5806 16.8306C21.7527 15.6585 23.3424 15 25 15C26.6576 15 28.2473 15.6585 29.4194 16.8306C30.5915 18.0027 31.25 19.5924 31.25 21.25C31.25 22.9076 30.5915 24.4973 29.4194 25.6694C28.2473 26.8415 26.6576 27.5 25 27.5ZM25 30C27.3206 30 29.5462 29.0781 31.1872 27.4372C32.8281 25.7962 33.75 23.5706 33.75 21.25C33.75 18.9294 32.8281 16.7038 31.1872 15.0628C29.5462 13.4219 27.3206 12.5 25 12.5C22.6794 12.5 20.4538 13.4219 18.8128 15.0628C17.1719 16.7038 16.25 18.9294 16.25 21.25C16.25 23.5706 17.1719 25.7962 18.8128 27.4372C20.4538 29.0781 22.6794 30 25 30ZM12.5 16.25C12.5 16.5815 12.3683 16.8995 12.1339 17.1339C11.8995 17.3683 11.5815 17.5 11.25 17.5C10.9185 17.5 10.6005 17.3683 10.3661 17.1339C10.1317 16.8995 10 16.5815 10 16.25C10 15.9185 10.1317 15.6005 10.3661 15.3661C10.6005 15.1317 10.9185 15 11.25 15C11.5815 15 11.8995 15.1317 12.1339 15.3661C12.3683 15.6005 12.5 15.9185 12.5 16.25Z" fill="#323232"/>
</g>
<path d="M12 13C15.0701 17.4346 19.2432 20.9144 22.7382 24.9087C25.5054 28.0713 28.2268 24.6872 30.5247 22.873C33.6513 20.4047 34.3778 15.8137 37.1915 13" stroke="#FF5E4E" stroke-opacity="0.3" stroke-width="23" stroke-linecap="round"/>
<defs>
<clipPath id="clip0_56_2123">
<rect width="40" height="40" fill="white" transform="translate(5)"/>
</clipPath>
</defs>
</svg>
