<svg width="49" height="40" viewBox="0 0 49 40" fill="none" xmlns="http://www.w3.org/2000/svg">
<path d="M12 13C15.0701 17.4346 19.2432 20.9144 22.7382 24.9087C25.5054 28.0713 28.2268 24.6872 30.5247 22.873C33.6513 20.4047 34.3778 15.8137 37.1915 13" stroke="#34A853" stroke-opacity="0.3" stroke-width="23" stroke-linecap="round"/>
<path d="M28.85 27.3L26.6667 29.4V20C26.6667 19.558 26.4911 19.1341 26.1785 18.8215C25.8659 18.509 25.442 18.3334 25 18.3334C24.558 18.3334 24.134 18.509 23.8215 18.8215C23.5089 19.1341 23.3333 19.558 23.3333 20V29.3167L21.1833 27.15C21.0279 26.9946 20.8434 26.8714 20.6404 26.7873C20.4374 26.7032 20.2198 26.6599 20 26.6599C19.7802 26.6599 19.5626 26.7032 19.3596 26.7873C19.1565 26.8714 18.9721 26.9946 18.8167 27.15C18.6613 27.3054 18.538 27.4899 18.4539 27.693C18.3698 27.896 18.3265 28.1136 18.3265 28.3334C18.3265 28.5531 18.3698 28.7708 18.4539 28.9738C18.538 29.1768 18.6613 29.3613 18.8167 29.5167L23.8167 34.5167C23.9724 34.6712 24.1571 34.7934 24.3602 34.8763C24.5632 34.9593 24.7806 35.0013 25 35C25.4291 34.9983 25.841 34.8312 26.15 34.5334L31.15 29.7C31.3268 29.5541 31.4717 29.3733 31.5754 29.1688C31.6792 28.9643 31.7397 28.7407 31.7531 28.5118C31.7664 28.2829 31.7324 28.0537 31.6532 27.8385C31.574 27.6234 31.4512 27.4269 31.2925 27.2613C31.1339 27.0958 30.9428 26.9648 30.7312 26.8765C30.5196 26.7881 30.2921 26.7444 30.0628 26.7481C29.8336 26.7517 29.6075 26.8026 29.3988 26.8976C29.1902 26.9925 29.0033 27.1296 28.85 27.3Z" fill="#323232"/>
<path d="M34.45 11.6667C33.7699 9.70176 32.4943 7.99771 30.8006 6.79161C29.1068 5.58552 27.0793 4.93738 25 4.93738C22.9207 4.93738 20.8932 5.58552 19.1995 6.79161C17.5057 7.99771 16.2301 9.70176 15.55 11.6667C14.0526 11.8672 12.6379 12.4711 11.4572 13.4137C10.2765 14.3562 9.37423 15.602 8.84695 17.0178C8.31967 18.4336 8.18719 19.9661 8.46369 21.4514C8.74018 22.9366 9.41525 24.3188 10.4167 25.45C10.5376 25.6631 10.7041 25.8469 10.9042 25.9883C11.1043 26.1297 11.3331 26.2252 11.5743 26.2681C11.8156 26.311 12.0633 26.3002 12.2998 26.2364C12.5364 26.1726 12.756 26.0575 12.943 25.8992C13.13 25.7408 13.2798 25.5432 13.3817 25.3204C13.4836 25.0976 13.5352 24.8551 13.5326 24.6101C13.5301 24.3651 13.4736 24.1236 13.3672 23.903C13.2607 23.6823 13.1069 23.4878 12.9167 23.3333C12.2719 22.6124 11.85 21.72 11.7022 20.7642C11.5543 19.8083 11.6869 18.8301 12.0838 17.9481C12.4807 17.0661 13.1249 16.3182 13.9383 15.7949C14.7518 15.2716 15.6995 14.9955 16.6667 15H16.8333C17.2233 15.0079 17.6036 14.8788 17.9081 14.6351C18.2126 14.3915 18.4221 14.0488 18.5 13.6667C18.806 12.1596 19.6236 10.8047 20.8143 9.8315C22.005 8.8583 23.4955 8.32666 25.0333 8.32666C26.5711 8.32666 28.0617 8.8583 29.2524 9.8315C30.443 10.8047 31.2607 12.1596 31.5667 13.6667C31.6446 14.0488 31.854 14.3915 32.1586 14.6351C32.4631 14.8788 32.8434 15.0079 33.2333 15H33.3333C34.3005 14.9955 35.2483 15.2716 36.0617 15.7949C36.8751 16.3182 37.5193 17.0661 37.9162 17.9481C38.3131 18.8301 38.4457 19.8083 38.2979 20.7642C38.15 21.72 37.7282 22.6124 37.0833 23.3333C36.9365 23.498 36.8239 23.6901 36.7519 23.8986C36.6799 24.1071 36.65 24.3279 36.6639 24.548C36.6779 24.7682 36.7354 24.9833 36.8331 25.1811C36.9309 25.3788 37.0669 25.5552 37.2333 25.7C37.5372 25.968 37.9282 26.1161 38.3333 26.1167C38.57 26.1164 38.8038 26.0657 39.0194 25.968C39.2349 25.8703 39.4272 25.7278 39.5833 25.55C40.6125 24.4207 41.3115 23.0303 41.6037 21.5306C41.896 20.0309 41.7703 18.4797 41.2404 17.0466C40.7105 15.6136 39.7969 14.3537 38.5993 13.4049C37.4017 12.4561 35.9663 11.8547 34.45 11.6667Z" fill="#323232"/>
</svg>
