<svg width="60" height="60" viewBox="0 0 60 60" fill="none" xmlns="http://www.w3.org/2000/svg">
<rect width="60" height="60" rx="5" fill="#E7E7E8"/>
<path d="M22.5 20.625C21.5054 20.625 20.5516 21.0201 19.8483 21.7233C19.1451 22.4266 18.75 23.3804 18.75 24.375V24.7519L30 30.81L41.25 24.7538V24.375C41.25 23.3804 40.8549 22.4266 40.1516 21.7233C39.4484 21.0201 38.4946 20.625 37.5 20.625H22.5ZM41.25 26.8819L30.4444 32.7C30.3078 32.7735 30.1551 32.812 30 32.812C29.8449 32.812 29.6922 32.7735 29.5556 32.7L18.75 26.8819V35.625C18.75 36.6196 19.1451 37.5734 19.8483 38.2766C20.5516 38.9799 21.5054 39.375 22.5 39.375H37.5C38.4946 39.375 39.4484 38.9799 40.1516 38.2766C40.8549 37.5734 41.25 36.6196 41.25 35.625V26.8819Z" fill="#FF6B00"/>
</svg>
