<svg width="60" height="60" viewBox="0 0 60 60" fill="none" xmlns="http://www.w3.org/2000/svg">
<rect width="60" height="60" rx="5" fill="#E7E7E8"/>
<path d="M30 42.1875C30.7013 42.1875 33.4425 40.185 35.6269 37.7006C38.5388 34.3913 40.3125 30.6975 40.3125 27.1875C40.3125 21.6319 35.7469 17.8125 30 17.8125C24.2531 17.8125 19.6875 21.6319 19.6875 27.1875C19.6875 30.7125 21.4613 34.4062 24.3731 37.7119C26.5556 40.1906 29.2969 42.1875 30 42.1875ZM30 29.4375C30.4973 29.4375 30.9742 29.24 31.3258 28.8883C31.6775 28.5367 31.875 28.0598 31.875 27.5625C31.875 27.0652 31.6775 26.5883 31.3258 26.2367C30.9742 25.885 30.4973 25.6875 30 25.6875C29.5027 25.6875 29.0258 25.885 28.6742 26.2367C28.3225 26.5883 28.125 27.0652 28.125 27.5625C28.125 28.0598 28.3225 28.5367 28.6742 28.8883C29.0258 29.24 29.5027 29.4375 30 29.4375ZM30 33.5625C28.4087 33.5625 26.8826 32.9304 25.7574 31.8051C24.6321 30.6799 24 29.1538 24 27.5625C24 25.9712 24.6321 24.4451 25.7574 23.3199C26.8826 22.1946 28.4087 21.5625 30 21.5625C31.5913 21.5625 33.1174 22.1946 34.2426 23.3199C35.3679 24.4451 36 25.9712 36 27.5625C36 29.1538 35.3679 30.6799 34.2426 31.8051C33.1174 32.9304 31.5913 33.5625 30 33.5625Z" fill="#FF6B00"/>
</svg>
