<svg width="60" height="60" viewBox="0 0 60 60" fill="none" xmlns="http://www.w3.org/2000/svg">
<rect width="60" height="60" rx="5" fill="#E7E7E8"/>
<path d="M40 28.7487H42.5C42.5 22.3362 37.6588 17.5 31.2375 17.5V20C36.315 20 40 23.6787 40 28.7487Z" fill="#FF6B00"/>
<path d="M31.25 25.0001C33.8788 25.0001 35 26.1213 35 28.7501H37.5C37.5 24.7188 35.2813 22.5001 31.25 22.5001V25.0001ZM35.5275 31.8038C35.2873 31.5855 34.9717 31.4691 34.6473 31.4791C34.3228 31.4891 34.015 31.6248 33.7888 31.8576L30.7975 34.9338C30.0775 34.7963 28.63 34.3451 27.14 32.8588C25.65 31.3676 25.1988 29.9163 25.065 29.2013L28.1388 26.2088C28.3718 25.9827 28.5077 25.6748 28.5177 25.3503C28.5277 25.0258 28.4111 24.7101 28.1925 24.4701L23.5738 19.3913C23.3551 19.1505 23.0511 19.0044 22.7264 18.9841C22.4018 18.9638 22.082 19.0709 21.835 19.2826L19.1225 21.6088C18.9064 21.8257 18.7774 22.1144 18.76 22.4201C18.7413 22.7326 18.3838 30.1351 24.1238 35.8776C29.1313 40.8838 35.4038 41.2501 37.1313 41.2501C37.3838 41.2501 37.5388 41.2426 37.58 41.2401C37.8856 41.2229 38.1742 41.0934 38.39 40.8763L40.715 38.1626C40.9268 37.9157 41.0341 37.596 41.014 37.2714C40.994 36.9467 40.8481 36.6427 40.6075 36.4238L35.5275 31.8038Z" fill="#FF6B00"/>
</svg>
