<svg width="50" height="50" viewBox="0 0 50 50" fill="none" xmlns="http://www.w3.org/2000/svg">
<path d="M30.4688 20.3125H10.1562C9.53486 20.3132 8.93913 20.5604 8.49975 20.9997C8.06036 21.4391 7.8132 22.0349 7.8125 22.6562V36.7188C7.8132 37.3401 8.06036 37.9359 8.49975 38.3753C8.93913 38.8146 9.53486 39.0618 10.1562 39.0625H30.4688C31.0901 39.0618 31.6859 38.8146 32.1253 38.3753C32.5646 37.9359 32.8118 37.3401 32.8125 36.7188V22.6562C32.8118 22.0349 32.5646 21.4391 32.1253 20.9997C31.6859 20.5604 31.0901 20.3132 30.4688 20.3125ZM31.25 36.7188C31.2498 36.9259 31.1674 37.1244 31.0209 37.2709C30.8744 37.4174 30.6759 37.4998 30.4688 37.5H10.1562C9.94905 37.5 9.75034 37.4177 9.60382 37.2712C9.45731 37.1247 9.375 36.926 9.375 36.7188V22.6562C9.375 22.449 9.45731 22.2503 9.60382 22.1038C9.75034 21.9573 9.94905 21.875 10.1562 21.875H30.4688C30.6759 21.8752 30.8744 21.9576 31.0209 22.1041C31.1674 22.2506 31.2498 22.4491 31.25 22.6562V36.7188Z" fill="#256782"/>
<path d="M42.9688 12.5H34.0119L32.0469 9.55203C31.6907 9.01643 31.2076 8.57729 30.6405 8.27377C30.0734 7.97025 29.4401 7.81178 28.7969 7.8125H14.9531C14.3099 7.81178 13.6766 7.97025 13.1095 8.27377C12.5424 8.57729 12.0593 9.01643 11.7031 9.55203L9.73812 12.5H7.03125C5.99563 12.5012 5.00278 12.9132 4.27048 13.6455C3.53819 14.3778 3.12624 15.3706 3.125 16.4063V38.2813C3.12624 39.3169 3.53819 40.3097 4.27048 41.042C5.00278 41.7743 5.99563 42.1863 7.03125 42.1875H42.9688C44.0044 42.1864 44.9974 41.7745 45.7297 41.0422C46.462 40.3099 46.8739 39.3169 46.875 38.2813V16.4063C46.8739 15.3706 46.462 14.3776 45.7297 13.6453C44.9974 12.913 44.0044 12.5011 42.9688 12.5ZM45.3125 38.2813C45.3118 38.9026 45.0646 39.4984 44.6253 39.9378C44.1859 40.3771 43.5901 40.6243 42.9688 40.625H7.03125C6.40986 40.6243 5.81413 40.3771 5.37474 39.9378C4.93536 39.4984 4.6882 38.9026 4.6875 38.2813V16.4063C4.6882 15.7849 4.93536 15.1891 5.37474 14.7497C5.81413 14.3104 6.40986 14.0632 7.03125 14.0625H10.1562C10.2849 14.0625 10.4115 14.0307 10.5249 13.97C10.6383 13.9093 10.7349 13.8216 10.8062 13.7145L13.0036 10.4188C13.2172 10.0974 13.507 9.83399 13.8472 9.65187C14.1873 9.46975 14.5673 9.37464 14.9531 9.375H28.7969C29.1828 9.37456 29.5628 9.46964 29.9031 9.65176C30.2433 9.83388 30.5332 10.0974 30.7469 10.4188L32.9437 13.7145C33.0151 13.8216 33.1117 13.9093 33.2251 13.97C33.3385 14.0307 33.4651 14.0625 33.5938 14.0625H42.9688C43.5901 14.0632 44.1859 14.3104 44.6253 14.7497C45.0646 15.1891 45.3118 15.7849 45.3125 16.4063V38.2813Z" fill="#256782"/>
<path d="M16.4062 18.75H27.3438C27.551 18.75 27.7497 18.6677 27.8962 18.5212C28.0427 18.3747 28.125 18.176 28.125 17.9688V11.7188C28.125 11.5115 28.0427 11.3128 27.8962 11.1663C27.7497 11.0198 27.551 10.9375 27.3438 10.9375H16.4062C16.199 10.9375 16.0003 11.0198 15.8538 11.1663C15.7073 11.3128 15.625 11.5115 15.625 11.7188V17.9688C15.625 18.176 15.7073 18.3747 15.8538 18.5212C16.0003 18.6677 16.199 18.75 16.4062 18.75ZM17.1875 12.5H26.5625V17.1875H17.1875V12.5Z" fill="#256782"/>
<path d="M39.0625 28.125C38.1354 28.125 37.2291 28.3999 36.4583 28.915C35.6874 29.4301 35.0866 30.1621 34.7318 31.0187C34.377 31.8752 34.2842 32.8177 34.4651 33.727C34.6459 34.6363 35.0924 35.4715 35.7479 36.1271C36.4035 36.7826 37.2387 37.2291 38.148 37.4099C39.0573 37.5908 39.9998 37.498 40.8563 37.1432C41.7129 36.7884 42.4449 36.1876 42.96 35.4167C43.4751 34.6459 43.75 33.7396 43.75 32.8125C43.7486 31.5697 43.2543 30.3782 42.3756 29.4994C41.4968 28.6207 40.3053 28.1264 39.0625 28.125ZM39.0625 35.9375C38.4444 35.9375 37.8402 35.7542 37.3263 35.4108C36.8124 35.0675 36.4119 34.5794 36.1754 34.0084C35.9389 33.4374 35.877 32.809 35.9975 32.2028C36.1181 31.5967 36.4158 31.0398 36.8528 30.6028C37.2898 30.1658 37.8467 29.8681 38.4528 29.7475C39.059 29.627 39.6874 29.6889 40.2584 29.9254C40.8294 30.1619 41.3175 30.5624 41.6608 31.0763C42.0042 31.5902 42.1875 32.1944 42.1875 32.8125C42.1866 33.641 41.857 34.4353 41.2712 35.0212C40.6853 35.607 39.891 35.9365 39.0625 35.9375Z" fill="#256782"/>
<path d="M36.7188 26.5625H41.4062C41.6135 26.5625 41.8122 26.4802 41.9587 26.3337C42.1052 26.1872 42.1875 25.9885 42.1875 25.7812V22.6562C42.1875 22.449 42.1052 22.2503 41.9587 22.1038C41.8122 21.9573 41.6135 21.875 41.4062 21.875H36.7188C36.5115 21.875 36.3128 21.9573 36.1663 22.1038C36.0198 22.2503 35.9375 22.449 35.9375 22.6562V25.7812C35.9375 25.9885 36.0198 26.1872 36.1663 26.3337C36.3128 26.4802 36.5115 26.5625 36.7188 26.5625ZM37.5 23.4375H40.625V25H37.5V23.4375Z" fill="#256782"/>
<path d="M20.3125 34.375C21.1754 34.375 21.875 33.6754 21.875 32.8125C21.875 31.9496 21.1754 31.25 20.3125 31.25C19.4496 31.25 18.75 31.9496 18.75 32.8125C18.75 33.6754 19.4496 34.375 20.3125 34.375Z" fill="#256782"/>
<path d="M13.6925 27.7656L14.808 28.8593C15.5281 28.1316 16.3853 27.5538 17.3302 27.1595C18.275 26.7652 19.2887 26.5622 20.3125 26.5622C21.3363 26.5622 22.35 26.7652 23.2948 27.1595C24.2397 27.5538 25.0969 28.1316 25.817 28.8593L26.9333 27.7656C26.0677 26.8895 25.0367 26.1939 23.9003 25.7192C22.7639 25.2445 21.5445 25 20.3129 25C19.0813 25 17.8619 25.2445 16.7255 25.7192C15.589 26.1939 14.5581 26.8895 13.6925 27.7656Z" fill="#256782"/>
<path d="M15.8916 29.9712L17.0132 31.0592C17.9002 30.2074 19.0823 29.7317 20.3121 29.7317C21.5419 29.7317 22.724 30.2074 23.611 31.0592L24.7325 29.9712C24.1545 29.3864 23.4661 28.922 22.7073 28.6051C21.9485 28.2882 21.1344 28.125 20.3121 28.125C19.4898 28.125 18.6756 28.2882 17.9168 28.6051C17.158 28.922 16.4696 29.3864 15.8916 29.9712Z" fill="#256782"/>
<path d="M7.8125 18.75C8.67545 18.75 9.375 18.0504 9.375 17.1875C9.375 16.3246 8.67545 15.625 7.8125 15.625C6.94956 15.625 6.25 16.3246 6.25 17.1875C6.25 18.0504 6.94956 18.75 7.8125 18.75Z" fill="#256782"/>
<path d="M12.5 18.75C13.3629 18.75 14.0625 18.0504 14.0625 17.1875C14.0625 16.3246 13.3629 15.625 12.5 15.625C11.6371 15.625 10.9375 16.3246 10.9375 17.1875C10.9375 18.0504 11.6371 18.75 12.5 18.75Z" fill="#256782"/>
<path d="M39.72 32.8424C39.5151 32.89 35.7163 34.2718 36.5648 34.5142C36.9623 34.6278 37.8155 34.6278 38.213 34.5142C38.8241 34.3396 40.7884 32.9329 39.8848 32.2302C39.521 31.9472 37.3077 31.2047 36.8473 31.6651C35.8529 32.6595 37.3614 34.1139 38.3543 34.1139C39.1804 34.1139 39.84 32.2409 39.0607 32.0183C37.3496 31.5294 37.177 32.4922 37.177 33.902C37.177 35.0755 38.3573 36.1796 38.4485 34.5377C38.5243 33.1738 39.4573 33.7495 38.8723 31.9947" stroke="#FF658C" stroke-opacity="0.3" stroke-width="6" stroke-linecap="round"/>
<path d="M23.1904 15.0416C22.7964 15.0375 17.1517 14.3301 18.952 14.712C19.7179 14.8744 20.2798 15.0416 21.0712 15.0416C22.1757 15.0416 23.4111 15.205 24.4619 14.8297C26.3386 14.1594 24.5678 14.6178 23.3787 14.6178C22.1857 14.6178 20.9927 14.6178 19.7997 14.6178C19.6255 14.6178 24.59 14.267 24.8151 14.8297C25.368 16.2119 21.3391 17.6967 20.6473 16.3131" stroke="#FF658C" stroke-opacity="0.3" stroke-width="6" stroke-linecap="round"/>
<path d="M23.1907 29.0279C22.8605 29.8244 20.9403 34.6406 19.5881 32.2067C18.9367 31.0341 18.1554 31.2105 17.257 30.0875C15.1579 27.4636 21.3267 28.2667 21.9192 29.4517" stroke="#FF658C" stroke-opacity="0.3" stroke-width="6" stroke-linecap="round"/>
</svg>
