<svg width="50" height="54" viewBox="0 0 50 54" fill="none" xmlns="http://www.w3.org/2000/svg">
<g clip-path="url(#clip0_115_623)">
<path d="M31.0566 1.09521V12.9789C31.0566 23.5034 23.3064 27.137 18.499 27.401C20.7061 30.6527 26.4739 30.0967 28.2766 29.1476C30.0794 28.1984 35.4203 23.4079 37.487 17.9322C39.5537 12.4566 39.4414 3.044 39.4414 3.044L39.2561 1.09521H31.0622H31.0566Z" fill="#00B2FF" fill-opacity="0.3"/>
<path d="M35.786 53.2347H13.2768C12.6759 53.2347 12.1816 52.7461 12.1816 52.1395V47.4501C12.1816 46.8492 12.6702 46.355 13.2768 46.355H35.786C36.387 46.355 36.8812 46.8436 36.8812 47.4501V52.1395C36.8812 52.7405 36.3926 53.2347 35.786 53.2347ZM14.3719 51.05H34.6909V48.5453H14.3719V51.05Z" fill="#256782"/>
<path d="M10.6986 16.5618C10.5358 16.5618 10.3785 16.5281 10.2213 16.4495C9.35078 16.0283 8.32866 15.7363 7.24475 15.4218C4.79614 14.7198 2.01618 13.9279 0.690781 11.2827C-0.606534 8.67124 -0.0224616 5.10503 1.9881 3.33596C3.94249 1.61744 7.12681 1.47704 10.0865 2.98777C10.6256 3.26295 10.839 3.92004 10.5639 4.45918C10.2887 4.99832 9.63159 5.21174 9.09244 4.93655C6.96395 3.85264 4.68382 3.86949 3.42581 4.98148C2.1285 6.12154 1.77469 8.56454 2.63956 10.3168C3.53252 12.0971 5.6217 12.698 7.83444 13.327C8.95766 13.6471 10.1258 13.9841 11.1648 14.4895C11.7039 14.7535 11.9342 15.4049 11.6702 15.9497C11.4793 16.3372 11.0918 16.5675 10.6874 16.5675L10.6986 16.5618Z" fill="#256782"/>
<path d="M10.7095 24.0086C10.5579 24.0086 10.4062 23.9974 10.249 23.9805C8.7158 23.8177 7.37917 22.7113 6.85687 21.1725C6.66593 20.5996 6.96919 19.9819 7.54203 19.7853C8.11488 19.5888 8.73264 19.8976 8.92359 20.4705C9.1707 21.2062 9.78847 21.7285 10.4905 21.8071C11.3497 21.9138 11.99 21.3354 12.2539 20.9647C12.4449 20.6614 12.7875 20.4536 13.175 20.4536C13.7759 20.4536 14.2701 20.9366 14.2701 21.5432V21.5544C14.2701 21.7734 14.2027 21.9868 14.0792 22.1722C13.4782 23.0539 12.2595 24.0086 10.7039 24.0086H10.7095Z" fill="#256782"/>
<path d="M39.2845 24.0088C37.7344 24.0088 36.5158 23.054 35.9148 22.1723C35.634 21.7623 35.4375 21.2906 35.3251 20.7739C35.196 20.1842 35.5723 19.6057 36.1619 19.4766C36.7572 19.3474 37.3301 19.7237 37.4593 20.3134C37.5098 20.5605 37.5997 20.7683 37.7176 20.9424C37.9703 21.313 38.633 21.914 39.4867 21.8129C40.1999 21.7342 40.8177 21.2119 41.0648 20.4762C41.2557 19.9034 41.8791 19.6001 42.4463 19.7911C43.0192 19.982 43.3225 20.6054 43.1315 21.1782C42.6092 22.7171 41.2726 23.8178 39.7282 23.9863C39.5765 24.0031 39.4249 24.0144 39.2733 24.0144L39.2845 24.0088Z" fill="#256782"/>
<path d="M38.1673 17.2636C37.8415 17.2636 37.5214 17.1176 37.3024 16.8424C36.9317 16.365 37.0216 15.6799 37.4934 15.3092C38.8187 14.2815 40.5204 13.7929 42.1659 13.3267C44.3731 12.6921 46.4622 12.0968 47.3496 10.3165C48.2201 8.5643 47.8606 6.1213 46.5633 4.98124C45.1256 3.71762 42.4018 3.89172 40.088 5.39683C39.5825 5.72818 38.903 5.58216 38.5773 5.07671C38.2459 4.57126 38.3919 3.89172 38.8974 3.56598C42.0705 1.50488 45.822 1.41502 48.0067 3.34134C50.0172 5.11041 50.6013 8.67101 49.304 11.2881C47.9898 13.9333 45.2099 14.7308 42.7612 15.4272C41.2449 15.8596 39.8184 16.2696 38.8244 17.039C38.6222 17.1906 38.3919 17.2692 38.156 17.2692L38.1673 17.2636Z" fill="#256782"/>
<path d="M33.1967 44.5973C32.9159 44.5973 32.6407 44.4906 32.4273 44.2828L27.9456 39.8349C26.8505 38.7398 26.2552 37.302 26.2552 35.7688V29.4901C26.2552 29.0127 26.5697 28.5859 27.0302 28.4455C33.646 26.4181 38.4477 16.8539 38.4477 5.70594C38.4477 4.56026 38.3916 3.38088 38.2792 2.18466H10.7885C10.6762 3.38088 10.62 4.56026 10.62 5.70594C10.62 16.8539 15.4218 26.4124 22.0375 28.4455C22.498 28.5859 22.8125 29.0071 22.8125 29.4901V35.7688C22.8125 37.302 22.2116 38.7454 21.1221 39.8349L16.6348 44.2828C16.208 44.704 15.5172 44.704 15.0904 44.2772C14.6636 43.8504 14.6692 43.1596 15.096 42.7328L19.5777 38.2849C20.2516 37.6109 20.6223 36.718 20.6223 35.7688V30.2651C13.5179 27.502 8.43536 17.3706 8.43536 5.70594C8.43536 4.16713 8.53084 2.57217 8.72178 0.965967C8.78918 0.41559 9.25531 0 9.80569 0H39.2508C39.8012 0 40.2673 0.41559 40.3347 0.965967C40.5257 2.57778 40.6211 4.17275 40.6211 5.70594C40.6211 17.3706 35.5386 27.502 28.4286 30.2651V35.7688C28.4286 36.718 28.7993 37.6109 29.4788 38.2905L33.9605 42.7328C34.3873 43.1596 34.3929 43.8504 33.9661 44.2772C33.7527 44.4906 33.4719 44.6029 33.1911 44.6029L33.1967 44.5973Z" fill="#256782"/>
<path d="M34.23 6.582H9.52488C8.92396 6.582 8.42975 6.0934 8.42975 5.48686C8.42975 4.88032 8.91835 4.39172 9.52488 4.39172H34.23C34.831 4.39172 35.3252 4.88032 35.3252 5.48686C35.3252 6.0934 34.8366 6.582 34.23 6.582Z" fill="#256782"/>
</g>
<defs>
<clipPath id="clip0_115_623">
<rect width="50" height="53.2349" fill="white"/>
</clipPath>
</defs>
</svg>
