<svg width="50" height="52" viewBox="0 0 50 52" fill="none" xmlns="http://www.w3.org/2000/svg">
<g clip-path="url(#clip0_115_638)">
<path d="M11.132 11.6418C11.132 11.6418 13.245 7.68896 18.6511 7.68896C20.1405 7.68896 21.7123 12.8889 21.7123 12.8889C21.7123 12.8889 16.2238 16.0275 11.132 11.6469V11.6418Z" fill="#F4C222" fill-opacity="0.3"/>
<path d="M28 12.2036C28 12.2036 29.8037 3.28271 37.9309 3.28271C46.0581 3.28271 43.1773 13.5177 43.1773 13.5177L37.261 9.18871L35.7098 7.26643L32.7464 10.3328C32.7464 10.3328 31.5766 12.2036 28 12.2036Z" fill="#F4C222" fill-opacity="0.3"/>
<path d="M35.4931 22.6496C31.2465 22.6496 28.1338 18.2742 27.2525 13.9555C27.1391 13.4092 27.4947 12.8732 28.0462 12.7598C28.5976 12.6465 29.1284 13.0021 29.2418 13.5535C30.0612 17.5836 32.7514 20.6242 35.4931 20.6242C38.3739 20.6242 40.9353 18.0165 41.7289 14.2801C41.8474 13.7339 42.3783 13.3834 42.9297 13.4968C43.476 13.6153 43.8264 14.1513 43.713 14.6976C42.7184 19.3822 39.3428 22.6496 35.4931 22.6496Z" fill="#256782"/>
<path d="M48.9855 46.6344C48.4238 46.6344 47.9703 46.1809 47.9703 45.6192V32.1271C47.9703 28.7618 46.6046 25.5615 44.1979 23.2114C41.8015 25.7573 38.7505 27.1436 35.4935 27.1436C31.9117 27.1436 28.5722 25.4635 26.0882 22.4075C25.7326 21.9746 25.7996 21.3355 26.2325 20.9799C26.6654 20.6243 27.3044 20.6913 27.66 21.1242C29.7524 23.6959 32.5353 25.1131 35.4935 25.1131C38.4516 25.1131 41.2346 23.6959 43.3269 21.1242C43.497 20.9129 43.7444 20.7789 44.0175 20.7532C44.2906 20.7274 44.5586 20.8099 44.7648 20.9851C48.094 23.7629 50.0008 27.8239 50.0008 32.122V45.614C50.0008 46.1758 49.5473 46.6293 48.9855 46.6293V46.6344Z" fill="#256782"/>
<path d="M44.4908 46.6344C43.9291 46.6344 43.4756 46.1809 43.4756 45.6191V32.1271C43.4756 31.5653 43.9291 31.1118 44.4908 31.1118C45.0526 31.1118 45.5061 31.5653 45.5061 32.1271V45.6191C45.5061 46.1809 45.0526 46.6344 44.4908 46.6344Z" fill="#256782"/>
<path d="M14.5076 27.1488C9.81788 27.1488 5.99908 22.325 5.99908 16.3881C5.99908 9.25038 8.86447 5.63257 14.5076 5.63257C20.1508 5.63257 23.0162 9.25038 23.0162 16.3881C23.0162 22.3198 19.1974 27.1488 14.5076 27.1488ZM14.5076 7.65792C10.024 7.65792 8.02444 10.3481 8.02444 16.3881C8.02444 21.2015 10.9311 25.1182 14.5076 25.1182C18.0842 25.1182 20.9908 21.2015 20.9908 16.3881C20.9908 10.3481 18.9913 7.65792 14.5076 7.65792Z" fill="#256782"/>
<path d="M27.9998 51.1337C27.438 51.1337 26.9845 50.6802 26.9845 50.1184V36.6263C26.9845 33.2611 25.6188 30.0607 23.2069 27.7107C20.8105 30.2565 17.7596 31.6428 14.5026 31.6428C11.2455 31.6428 8.19458 30.2565 5.79817 27.7107C3.38629 30.0607 2.02575 33.2611 2.02575 36.6263V50.1184C2.02575 50.6802 1.57223 51.1337 1.01049 51.1337C0.448754 51.1337 -0.00476074 50.6802 -0.00476074 50.1184V36.6263C-0.00476074 32.3283 1.90722 28.2672 5.23127 25.4895C5.43742 25.3142 5.71056 25.2318 5.97854 25.2576C6.24653 25.2833 6.49905 25.4173 6.66912 25.6286C8.76147 28.2003 11.5444 29.6175 14.5026 29.6175C17.4607 29.6175 20.2436 28.2003 22.336 25.6286C22.5061 25.4173 22.7534 25.2833 23.0266 25.2576C23.2946 25.2318 23.5677 25.3142 23.7738 25.4895C27.1031 28.2672 29.015 32.3283 29.015 36.6263V50.1184C29.015 50.6802 28.5615 51.1337 27.9998 51.1337Z" fill="#256782"/>
<path d="M7.19996 17.2798C7.06082 17.2798 6.92167 17.2488 6.78768 17.1922C6.27747 16.9654 6.05072 16.3624 6.27747 15.8522C6.82375 14.636 7.56071 13.5331 8.46259 12.5746C9.09648 11.9046 9.80767 11.3068 10.5807 10.7966C10.9672 10.544 11.4826 10.5853 11.8227 10.8996C12.5081 11.5284 13.9718 12.6364 16.095 12.9508C18.4502 13.3012 20.321 12.5076 21.2228 12.0025C21.7124 11.7294 22.3309 11.9046 22.604 12.3942C22.8771 12.8838 22.7019 13.5022 22.2123 13.7753C21.0837 14.4041 18.7491 15.3987 15.7961 14.9607C13.6729 14.6463 12.0752 13.698 11.0858 12.9301C10.6786 13.2445 10.2921 13.5898 9.94167 13.966C9.18924 14.7648 8.58112 15.677 8.12761 16.6871C7.95754 17.0633 7.58648 17.2849 7.19996 17.2849V17.2798Z" fill="#256782"/>
<path d="M7.00933 51.1334C6.44759 51.1334 5.99408 50.6799 5.99408 50.1182V36.6261C5.99408 36.0644 6.44759 35.6108 7.00933 35.6108C7.57107 35.6108 8.02459 36.0644 8.02459 36.6261V50.1182C8.02459 50.6799 7.57107 51.1334 7.00933 51.1334Z" fill="#256782"/>
<path d="M22.0006 51.1334C21.4389 51.1334 20.9854 50.6799 20.9854 50.1182V36.6261C20.9854 36.0644 21.4389 35.6108 22.0006 35.6108C22.5623 35.6108 23.0159 36.0644 23.0159 36.6261V50.1182C23.0159 50.6799 22.5623 51.1334 22.0006 51.1334Z" fill="#256782"/>
<path d="M43.1771 14.5277C43.0225 14.5277 42.873 14.4917 42.7339 14.4247C40.7704 13.4712 38.9872 12.2344 37.4206 10.7502C36.7867 10.1472 36.1889 9.50299 35.6323 8.82788C34.9623 9.6576 34.215 10.4203 33.4008 11.1058C31.9371 12.3375 30.2829 13.296 28.4791 13.966C27.9844 14.1515 27.4329 13.9248 27.2062 13.4455C25.4849 9.76583 26.0105 5.47805 28.5049 2.77242C30.0819 1.05628 32.3391 0.0771024 34.8541 -0.000201285C37.5958 -0.0775049 40.2035 0.917135 42.0742 2.72604C44.919 5.4832 45.7436 9.97197 44.1202 13.899C44.012 14.1567 43.8058 14.3577 43.543 14.4607C43.4245 14.5071 43.3059 14.5277 43.1823 14.5277H43.1771ZM35.6168 6.1274C35.9415 6.1274 36.2507 6.28716 36.4414 6.54999C37.1423 7.53433 37.9411 8.45166 38.812 9.27624C39.951 10.3585 41.2239 11.2913 42.5999 12.0643C43.3884 9.18347 42.6669 6.12225 40.657 4.17935C39.1985 2.76727 37.0598 1.953 34.9056 2.02515C32.9421 2.08184 31.195 2.83427 29.9891 4.13812C28.242 6.03464 27.7524 8.97218 28.6749 11.683C29.9066 11.1315 31.0507 10.41 32.0866 9.54422C33.1122 8.68358 34.014 7.67863 34.7716 6.56546C34.9571 6.29232 35.2664 6.12225 35.5962 6.12225H35.6065L35.6168 6.1274Z" fill="#256782"/>
</g>
<defs>
<clipPath id="clip0_115_638">
<rect width="50" height="51.1338" fill="white"/>
</clipPath>
</defs>
</svg>
