<svg width="50" height="50" viewBox="0 0 50 50" fill="none" xmlns="http://www.w3.org/2000/svg">
<path d="M44.0735 14.1345C43.7 13.9332 43.2787 13.8378 42.8549 13.8583C42.4312 13.8789 42.0211 14.0147 41.6688 14.2512L35.9376 18.072V16.4065C35.9365 15.3708 35.5246 14.3779 34.7923 13.6455C34.0599 12.9132 33.067 12.5013 32.0313 12.5002H8.59381C7.55814 12.5013 6.56519 12.9132 5.83286 13.6455C5.10053 14.3779 4.68864 15.3708 4.68756 16.4065V33.594C4.68864 34.6297 5.10053 35.6226 5.83286 36.3549C6.56519 37.0873 7.55814 37.4992 8.59381 37.5002H32.0313C33.067 37.4992 34.0599 37.0873 34.7923 36.3549C35.5246 35.6226 35.9365 34.6297 35.9376 33.594V31.9285L41.6688 35.7493C42.0218 35.9846 42.432 36.1197 42.8557 36.1402C43.2794 36.1606 43.7007 36.0657 44.0748 35.8655C44.4488 35.6654 44.7614 35.3674 44.9794 35.0035C45.1974 34.6396 45.3126 34.2234 45.3126 33.7992V16.2013C45.3131 15.7768 45.1981 15.3601 44.9798 14.996C44.7615 14.6319 44.4482 14.3341 44.0735 14.1345ZM43.7501 33.7992C43.7501 33.9406 43.7117 34.0793 43.639 34.2006C43.5664 34.3219 43.4622 34.4213 43.3375 34.488C43.2129 34.5547 43.0724 34.5864 42.9312 34.5796C42.7899 34.5727 42.6532 34.5277 42.5355 34.4493L35.5896 29.819C35.4719 29.7406 35.3352 29.6956 35.194 29.6887C35.0528 29.6819 34.9123 29.7136 34.7877 29.7803C34.663 29.847 34.5588 29.9463 34.4861 30.0676C34.4135 30.1889 34.3751 30.3276 34.3751 30.469V33.594C34.3744 34.2154 34.1272 34.8111 33.6878 35.2505C33.2484 35.6899 32.6527 35.937 32.0313 35.9377H8.59381C7.97243 35.937 7.37669 35.6899 6.93731 35.2505C6.49792 34.8111 6.25076 34.2154 6.25006 33.594V16.4065C6.25076 15.7851 6.49792 15.1894 6.93731 14.75C7.37669 14.3106 7.97243 14.0634 8.59381 14.0627H32.0313C32.6527 14.0634 33.2484 14.3106 33.6878 14.75C34.1272 15.1894 34.3744 15.7851 34.3751 16.4065V19.5315C34.3751 19.6729 34.4135 19.8116 34.4861 19.9329C34.5588 20.0542 34.663 20.1535 34.7877 20.2202C34.9123 20.2869 35.0528 20.3186 35.194 20.3117C35.3352 20.3049 35.4719 20.2599 35.5896 20.1815L42.5355 15.5512C42.6532 15.4728 42.7899 15.4277 42.9312 15.4209C43.0724 15.4141 43.2129 15.4458 43.3375 15.5125C43.4622 15.5792 43.5664 15.6786 43.639 15.7999C43.7117 15.9212 43.7501 16.0599 43.7501 16.2013V33.7992Z" fill="#256782"/>
<path d="M20.3126 21.8755C19.6945 21.8755 19.0903 22.0588 18.5764 22.4021C18.0625 22.7455 17.662 23.2336 17.4254 23.8046C17.1889 24.3756 17.127 25.004 17.2476 25.6101C17.3682 26.2163 17.6658 26.7732 18.1029 27.2102C18.5399 27.6472 19.0967 27.9449 19.7029 28.0654C20.3091 28.186 20.9374 28.1241 21.5084 27.8876C22.0795 27.6511 22.5675 27.2505 22.9109 26.7366C23.2543 26.2227 23.4376 25.6186 23.4376 25.0005C23.4366 24.172 23.1071 23.3777 22.5212 22.7918C21.9354 22.206 21.1411 21.8764 20.3126 21.8755ZM20.3126 26.563C20.0035 26.563 19.7014 26.4714 19.4445 26.2997C19.1875 26.128 18.9873 25.8839 18.869 25.5984C18.7507 25.3129 18.7198 24.9988 18.7801 24.6957C18.8404 24.3926 18.9892 24.1142 19.2077 23.8956C19.4262 23.6771 19.7046 23.5283 20.0077 23.468C20.3108 23.4077 20.625 23.4387 20.9105 23.5569C21.196 23.6752 21.44 23.8755 21.6117 24.1324C21.7834 24.3894 21.8751 24.6915 21.8751 25.0005C21.8747 25.4148 21.71 25.812 21.417 26.1049C21.1241 26.3979 20.7268 26.5626 20.3126 26.563Z" fill="#256782"/>
<path d="M14.8439 17.188H10.1564C9.94917 17.188 9.75046 17.2703 9.60395 17.4168C9.45743 17.5633 9.37512 17.762 9.37512 17.9692V22.6567C9.37512 22.8639 9.45743 23.0627 9.60395 23.2092C9.75046 23.3557 9.94917 23.438 10.1564 23.438C10.3636 23.438 10.5623 23.3557 10.7088 23.2092C10.8553 23.0627 10.9376 22.8639 10.9376 22.6567V18.7505H14.8439C15.0511 18.7505 15.2498 18.6682 15.3963 18.5217C15.5428 18.3752 15.6251 18.1764 15.6251 17.9692C15.6251 17.762 15.5428 17.5633 15.3963 17.4168C15.2498 17.2703 15.0511 17.188 14.8439 17.188Z" fill="#256782"/>
<path d="M30.4689 26.563C30.2617 26.563 30.063 26.6453 29.9165 26.7918C29.77 26.9383 29.6877 27.137 29.6877 27.3442V31.2505H25.7814C25.5742 31.2505 25.3755 31.3328 25.229 31.4793C25.0825 31.6258 25.0002 31.8245 25.0002 32.0317C25.0002 32.2389 25.0825 32.4377 25.229 32.5842C25.3755 32.7307 25.5742 32.813 25.7814 32.813H30.4689C30.6761 32.813 30.8748 32.7307 31.0214 32.5842C31.1679 32.4377 31.2502 32.2389 31.2502 32.0317V27.3442C31.2502 27.137 31.1679 26.9383 31.0214 26.7918C30.8748 26.6453 30.6761 26.563 30.4689 26.563Z" fill="#256782"/>
<path d="M20.1569 24.4897C18.775 26.2746 18.7016 24.8503 20.1569 24.8503" stroke="#34A853" stroke-opacity="0.3" stroke-width="3.27767" stroke-linecap="round"/>
<path d="M40.1982 18.5532C40.1982 23.2582 40.1982 27.9633 40.1982 32.6683C40.1982 33.3364 40.1982 31.3322 40.1982 30.6641C40.1982 29.2039 40.1982 27.7438 40.1982 26.2836C40.1982 24.0938 41.7443 17.7091 41.7443 19.8989C41.7443 23.0483 41.7443 26.1977 41.7443 29.3471C41.7443 30.7309 41.7443 32.1148 41.7443 33.4986C41.7443 35.447 41.7443 32.002 41.7443 31.4372" stroke="#34A853" stroke-opacity="0.3" stroke-width="3.27767" stroke-linecap="round"/>
</svg>
