<svg width="22" height="21" viewBox="0 0 22 21" fill="none" xmlns="http://www.w3.org/2000/svg">
<path d="M11.178 1.80078C6.45845 1.80078 2.6366 5.63118 2.6366 10.3508C2.6366 15.0704 6.45845 18.9008 11.178 18.9008C15.9062 18.9008 19.7366 15.0704 19.7366 10.3508C19.7366 5.63118 15.9062 1.80078 11.178 1.80078ZM17.1032 6.93078H14.5809C14.3073 5.86203 13.914 4.83603 13.401 3.88698C14.9742 4.42563 16.2824 5.52003 17.1032 6.93078ZM11.1866 3.54498C11.8962 4.57098 12.452 5.70813 12.8196 6.93078H9.55354C9.92119 5.70813 10.4769 4.57098 11.1866 3.54498ZM4.5689 12.0608C4.4321 11.5136 4.3466 10.9407 4.3466 10.3508C4.3466 9.76083 4.4321 9.18798 4.5689 8.64078H7.4588C7.3904 9.20508 7.3391 9.76938 7.3391 10.3508C7.3391 10.9322 7.3904 11.4965 7.4588 12.0608H4.5689ZM5.27 13.7708H7.79224C8.06584 14.8395 8.45914 15.8655 8.97214 16.8146C7.39894 16.2759 6.0908 15.1901 5.27 13.7708ZM7.79224 6.93078H5.27C6.0908 5.51148 7.39894 4.42563 8.97214 3.88698C8.45914 4.83603 8.06584 5.86203 7.79224 6.93078ZM11.1866 17.1566C10.4769 16.1306 9.92119 14.9934 9.55354 13.7708H12.8196C12.452 14.9934 11.8962 16.1306 11.1866 17.1566ZM13.1873 12.0608H9.18589C9.10894 11.4965 9.04909 10.9322 9.04909 10.3508C9.04909 9.76938 9.10894 9.19653 9.18589 8.64078H13.1873C13.2642 9.19653 13.3241 9.76938 13.3241 10.3508C13.3241 10.9322 13.2642 11.4965 13.1873 12.0608ZM13.401 16.8146C13.914 15.8655 14.3073 14.8395 14.5809 13.7708H17.1032C16.2824 15.1815 14.9742 16.2759 13.401 16.8146ZM14.9144 12.0608C14.9828 11.4965 15.0341 10.9322 15.0341 10.3508C15.0341 9.76938 14.9828 9.20508 14.9144 8.64078H17.8043C17.9411 9.18798 18.0266 9.76083 18.0266 10.3508C18.0266 10.9407 17.9411 11.5136 17.8043 12.0608H14.9144Z" fill="#FF6B00"/>
</svg>
