<svg width="22" height="22" viewBox="0 0 22 22" fill="none" xmlns="http://www.w3.org/2000/svg">
<path d="M15.0409 6.93018H11.6209V8.64018H15.0409C16.4516 8.64018 17.6059 9.79442 17.6059 11.2052C17.6059 12.6159 16.4516 13.7702 15.0409 13.7702H11.6209V15.4802H15.0409C17.4007 15.4802 19.3159 13.565 19.3159 11.2052C19.3159 8.84538 17.4007 6.93018 15.0409 6.93018ZM9.91088 13.7702H6.49088C5.08013 13.7702 3.92588 12.6159 3.92588 11.2052C3.92588 9.79442 5.08013 8.64018 6.49088 8.64018H9.91088V6.93018H6.49088C4.13108 6.93018 2.21588 8.84538 2.21588 11.2052C2.21588 13.565 4.13108 15.4802 6.49088 15.4802H9.91088V13.7702ZM7.34588 10.3502H14.1859V12.0602H7.34588V10.3502Z" fill="#FF6B00"/>
</svg>
