<svg width="22" height="21" viewBox="0 0 22 21" fill="none" xmlns="http://www.w3.org/2000/svg">
<path fill-rule="evenodd" clip-rule="evenodd" d="M16.4587 4.90224C15.7486 4.18776 14.9039 3.62127 13.9733 3.23558C13.0428 2.84988 12.0449 2.65265 11.0376 2.6553C6.81498 2.6553 3.37467 6.0924 3.37467 10.315C3.37147 11.6596 3.72413 12.981 4.39682 14.1452L3.31055 18.1152L7.37351 17.0482C8.49697 17.6602 9.7557 17.9813 11.035 17.9825H11.0382C15.2615 17.9825 18.698 14.546 18.7005 10.3202C18.7005 8.27393 17.9041 6.35018 16.4587 4.9016V4.90224ZM11.0376 16.6878H11.035C9.89461 16.6878 8.77512 16.3815 7.79352 15.8009L7.56075 15.6631L5.14837 16.2947L5.79218 13.9445L5.64213 13.704C5.00383 12.689 4.6659 11.5141 4.66743 10.315C4.66743 6.80611 7.52548 3.95062 11.0402 3.95062C11.8766 3.94853 12.7052 4.11239 13.4779 4.43269C14.2506 4.753 14.9521 5.2234 15.5417 5.81666C16.1343 6.40708 16.604 7.10905 16.9238 7.88202C17.2435 8.655 17.4069 9.48367 17.4046 10.3202C17.4046 13.8323 14.5465 16.6878 11.037 16.6878H11.0376ZM14.5292 11.9182C14.3388 11.8233 13.3968 11.3603 13.2217 11.2974C13.0466 11.232 12.9184 11.2019 12.7908 11.3923C12.6625 11.5847 12.297 12.0163 12.1848 12.1439C12.0745 12.2689 11.9616 12.2869 11.7712 12.1913C11.5788 12.0964 10.9626 11.8931 10.2309 11.2397C9.66213 10.7331 9.27673 10.1047 9.16644 9.91425C9.05358 9.72187 9.15361 9.61928 9.24916 9.52309C9.33637 9.43844 9.44154 9.30057 9.53708 9.18771C9.63199 9.07806 9.66533 8.9979 9.72946 8.86965C9.7923 8.74204 9.76024 8.62919 9.71214 8.53428C9.66469 8.43937 9.28186 7.49481 9.12155 7.11135C8.96573 6.73814 8.80798 6.79072 8.69063 6.78367C8.58034 6.77854 8.45273 6.77854 8.32512 6.77854C8.19687 6.77854 7.98911 6.82599 7.8134 7.01901C7.63834 7.20946 7.14458 7.67308 7.14458 8.61444C7.14458 9.55643 7.83072 10.4676 7.9269 10.5959C8.02181 10.7209 9.27673 12.6543 11.1973 13.4841C11.5532 13.638 11.9171 13.7726 12.2874 13.8874C12.7459 14.0324 13.164 14.0125 13.4949 13.9644C13.863 13.9099 14.6267 13.5014 14.787 13.0532C14.9454 12.6075 14.9454 12.224 14.8973 12.1439C14.8498 12.0637 14.7222 12.0156 14.5292 11.9182Z" fill="#FF6B00"/>
</svg>
