<svg width="198" height="51" viewBox="0 0 198 51" fill="none" xmlns="http://www.w3.org/2000/svg">
<g clip-path="url(#clip0_56_1943)">
<path d="M27.1014 13.1472V13.1831C27.1014 16.2521 24.2269 17.4771 21.6887 18.5583C15.7352 20.9569 1.89322 26.1831 1.75452 26.2345C1.1616 26.4605 0.43344 26.2833 0.131775 25.8441C-0.166423 25.4101 0.0624332 24.8631 0.658829 24.6422C0.797526 24.5909 14.6083 19.375 20.5098 16.9968C23.1693 15.8643 24.688 15.1246 24.688 13.1831V13.1651C24.688 11.2056 23.1693 10.466 20.4855 9.32319C14.6117 6.95792 0.800993 1.74199 0.658829 1.69063C0.0624332 1.4672 -0.166423 0.922745 0.131775 0.488727C0.43344 0.0495716 1.1616 -0.127628 1.75452 0.0983695C1.89322 0.152301 15.7317 5.37593 21.661 7.76432C24.2234 8.85578 27.1014 10.0808 27.1014 13.1497" fill="#FF6B00"/>
<path d="M0 37.8527V37.8168C0 34.7478 2.8745 33.5228 5.41265 32.4416C11.3662 30.043 25.2081 24.8168 25.3468 24.7654C25.9398 24.5394 26.6679 24.7166 26.9696 25.1558C27.2678 25.5898 27.0389 26.1368 26.4425 26.3577C26.3038 26.409 12.4931 31.6249 6.59157 34.0031C3.93206 35.1356 2.41333 35.8753 2.41333 37.8168V37.8348C2.41333 39.7943 3.93206 40.5339 6.61584 41.6767C12.4896 44.042 26.3004 49.2579 26.4425 49.3093C27.0389 49.5327 27.2678 50.0772 26.9696 50.5112C26.6679 50.9503 25.9398 51.1275 25.3468 50.9015C25.2081 50.8502 11.3697 45.624 5.44038 43.2356C2.87796 42.1441 0.0034708 40.9191 0.0034708 37.8476" fill="#FF6B00"/>
<path d="M147.185 47.8841L120.316 47.8739C116.356 47.8739 113.114 45.5497 112.951 42.6477H112.944V33.2534C112.944 33.0993 112.951 32.9477 112.968 32.7962C113.284 29.9918 116.512 27.7935 120.316 27.7935L147.185 27.7832C147.851 27.7832 148.392 28.1838 148.392 28.6769C148.392 29.17 147.851 29.5732 147.185 29.5732L120.319 29.5835C117.76 29.5835 115.59 31.0602 115.378 32.9452C115.368 33.0453 115.361 33.1506 115.361 33.2534V42.4165C115.361 44.4403 117.584 46.0864 120.319 46.0864L147.188 46.0967C147.854 46.0967 148.395 46.4973 148.395 46.993C148.395 47.4887 147.854 47.8867 147.188 47.8867" fill="#005F86"/>
<path d="M138.364 38.7415H125.385C124.716 38.7415 124.179 38.3409 124.179 37.8478C124.179 37.3547 124.72 36.9541 125.385 36.9541H138.364C139.03 36.9541 139.571 37.3547 139.571 37.8478C139.571 38.3409 139.03 38.7415 138.364 38.7415Z" fill="#005F86"/>
<path d="M196.79 23.2041H169.921C169.858 23.2041 169.796 23.2015 169.737 23.1938C165.933 23.1245 162.833 20.9107 162.57 18.1243C162.556 18.0729 162.553 18.0215 162.553 17.9676V4.02507C162.553 3.53199 163.093 3.13135 163.759 3.13135C164.425 3.13135 164.966 3.53199 164.966 4.02507V17.7339C164.966 19.7602 167.189 21.4064 169.924 21.4064C169.983 21.4064 170.039 21.4089 170.094 21.4141H196.793C197.459 21.4141 198 21.8147 198 22.3078C198 22.8009 197.459 23.2015 196.793 23.2015" fill="#005F86"/>
<path d="M33.3774 23.2041C32.7082 23.2041 32.1707 22.8034 32.1707 22.3104V4.02507C32.1707 3.53199 32.7116 3.13135 33.3774 3.13135C34.0431 3.13135 34.584 3.53199 34.584 4.02507V22.3104C34.584 22.8034 34.0431 23.2041 33.3774 23.2041Z" fill="#005F86"/>
<path d="M82.958 23.2041C82.2888 23.2041 81.7513 22.8034 81.7513 22.3104V4.02507C81.7513 3.53199 82.2922 3.13135 82.958 3.13135C83.6237 3.13135 84.1646 3.53199 84.1646 4.02507V22.3104C84.1646 22.8034 83.6237 23.2041 82.958 23.2041Z" fill="#005F86"/>
<path d="M107.005 23.2247C106.335 23.2247 105.798 22.8241 105.798 22.331V8.40642C105.798 7.91333 106.339 7.5127 107.005 7.5127C107.67 7.5127 108.211 7.91333 108.211 8.40642V22.331C108.211 22.8241 107.67 23.2247 107.005 23.2247Z" fill="#005F86"/>
<path d="M124.196 9.47742C123.527 9.47742 122.989 9.07679 122.989 8.58371C122.989 7.5924 122.466 6.66015 121.516 5.96418C120.583 5.27592 119.349 4.8984 118.038 4.8984H97.32C94.5912 4.8984 92.3686 6.5523 92.3686 8.58371C92.3686 9.07679 91.8277 9.47742 91.1619 9.47742C90.4962 9.47742 89.9552 9.07679 89.9552 8.58371C89.9552 5.56356 93.2597 3.1084 97.3235 3.1084H118.041C119.993 3.1084 121.838 3.67083 123.225 4.69295C124.633 5.72792 125.41 7.10958 125.41 8.58114C125.41 9.07422 124.869 9.47486 124.203 9.47486" fill="#005F86"/>
<path d="M67.9233 23.2428H52.9475L47.1742 23.1324C43.1416 23.1324 39.8372 20.6772 39.8372 17.6571V8.54522C39.8372 5.53534 43.1416 3.08789 47.2054 3.08789H67.9233C69.8754 3.08789 71.7166 3.65031 73.107 4.67244C74.5148 5.70997 75.2915 7.09164 75.2915 8.56319C75.2915 9.05885 74.7506 9.45691 74.0849 9.45691C73.4191 9.45691 72.8782 9.05628 72.8782 8.56319C72.8782 7.57188 72.3546 6.63964 71.4046 5.94111C70.4718 5.25541 69.2374 4.87789 67.9267 4.87789H47.2089C44.4766 4.87789 42.2574 6.52408 42.2574 8.54522V17.6571C42.2574 19.6885 44.4801 21.3424 47.2089 21.3424L52.9822 21.4554H67.9267C70.6591 21.4554 72.8782 19.8092 72.8782 17.788V14.3827C72.8782 14.2209 72.6979 14.0873 72.4794 14.0873H58.3705C58.1521 14.0873 57.9718 14.2209 57.9718 14.3827V15.8773C57.9718 16.3704 57.4309 16.771 56.7651 16.771C56.0994 16.771 55.5584 16.3704 55.5584 15.8773V14.3827C55.5584 13.2321 56.8206 12.2973 58.374 12.2973H72.4829C74.0363 12.2973 75.2985 13.2321 75.2985 14.3827V17.788C75.2985 20.7979 71.994 23.2454 67.9302 23.2454" fill="#005F86"/>
<path d="M60.2291 47.9122H45.2533L39.48 47.8018C35.4474 47.8018 32.143 45.3466 32.143 42.3265V33.2326C32.143 30.2125 35.4474 27.7573 39.5112 27.7573H60.2291C62.1812 27.7573 64.0224 28.3197 65.4129 29.3419C66.8206 30.3794 67.5973 31.7611 67.5973 33.2326V42.4395C67.5973 45.4596 64.2929 47.9148 60.2291 47.9148M39.5112 29.5473C36.7824 29.5473 34.5598 31.2012 34.5598 33.2326V42.3265C34.5598 44.3579 36.7824 46.0118 39.5112 46.0118L45.2845 46.1248H60.2325C62.9614 46.1248 65.184 44.4709 65.184 42.4395V33.2326C65.184 32.2413 64.6604 31.3091 63.7138 30.6105C62.7811 29.9248 61.5432 29.5473 60.2325 29.5473H39.5147H39.5112Z" fill="#005F86"/>
<path d="M157.029 23.204C156.589 23.204 156.166 23.0268 155.951 22.716C155.881 22.6133 148.839 12.3843 145.628 8.01328C144.099 6.04351 143.097 4.92122 140.479 4.92122H140.455C137.809 4.92122 136.81 6.04607 135.267 8.03383C132.07 12.3843 125.032 22.6133 124.959 22.716C124.654 23.1552 123.929 23.3324 123.336 23.1064C122.743 22.8829 122.504 22.3436 122.809 21.9045C122.878 21.8018 129.935 11.5522 133.159 7.16065C134.633 5.26279 136.287 3.13379 140.434 3.13379C140.441 3.13379 140.451 3.13379 140.458 3.13379H140.482C144.626 3.13379 146.28 5.26278 147.74 7.14267C150.978 11.5522 158.035 21.8043 158.104 21.9071C158.406 22.3462 158.17 22.8855 157.577 23.1089C157.4 23.1757 157.213 23.2065 157.029 23.2065" fill="#005F86"/>
<path d="M146.946 17.1562H133.967C133.298 17.1562 132.761 16.7555 132.761 16.2625C132.761 15.7694 133.301 15.3687 133.967 15.3687H146.946C147.611 15.3687 148.152 15.7694 148.152 16.2625C148.152 16.7555 147.611 17.1562 146.946 17.1562Z" fill="#005F86"/>
<path d="M100.593 47.9122H85.6175L72.5835 47.7889V27.7573H100.597C102.549 27.7573 104.39 28.3197 105.781 29.3419C107.192 30.3794 107.965 31.7611 107.965 33.2326V42.4395C107.965 45.4596 104.661 47.9148 100.597 47.9148M75.0003 46.0246L85.6348 46.1248H100.597C103.329 46.1248 105.548 44.4709 105.548 42.4395V33.2326C105.548 32.2413 105.025 31.3116 104.075 30.6105C103.142 29.9248 101.907 29.5473 100.597 29.5473H75.0003V46.0246Z" fill="#005F86"/>
</g>
<defs>
<clipPath id="clip0_56_1943">
<rect width="198" height="51" fill="white"/>
</clipPath>
</defs>
</svg>
