<svg width="42" height="36" viewBox="0 0 42 36" fill="none" xmlns="http://www.w3.org/2000/svg">
<path d="M38.2196 18.2984C38.3097 18.1668 38.3379 18.0401 38.283 18.0153C38.228 17.9908 38.1101 18.0775 38.02 18.2091C37.9902 18.2526 37.9338 18.3004 37.8364 18.3523C37.6903 18.4297 37.4952 18.487 37.2368 18.5106C36.9182 18.5042 36.6857 18.3702 36.5251 18.182C36.3968 18.0317 36.3148 17.8462 36.2713 17.6634C36.23 17.4886 36.2247 17.3195 36.2487 17.1901C36.2487 17.189 36.2487 17.1882 36.248 17.1878C36.3048 17.1268 36.3571 17.0481 36.3865 16.9741C36.4365 16.8481 36.4022 16.7825 36.3094 16.8272C36.08 16.9378 35.9297 17.1794 35.8728 17.4828C35.8415 17.6515 35.8457 17.8622 35.8949 18.0706C35.9423 18.271 36.0316 18.4732 36.1713 18.6366C36.3468 18.8427 36.6025 18.9889 36.9544 18.995C36.9567 18.995 36.9594 18.995 36.9617 18.995C37.2536 18.9683 37.4857 18.898 37.6696 18.8003C37.9032 18.6763 38.0818 18.4992 38.2189 18.2988L38.2196 18.2984ZM28.9831 20.7842C29.9083 20.2899 30.5185 18.7484 30.6483 17.0096C30.7971 15.0162 30.293 12.2648 29.4884 10.2634C31.4089 10.9328 33.6477 11.9396 35.5079 12.9316C37.8464 14.1788 39.2928 15.3555 40.1806 16.3741C41.0649 17.389 41.3355 19.1381 41.0542 21.3261C40.7683 23.5478 37.23 32.7362 35.8701 35.5494C36.327 35.0983 41.3996 23.9004 41.8129 20.6903C42.1102 18.3809 41.8236 16.5337 40.8886 15.4608C40.1729 14.6399 39.0974 13.717 37.4903 12.7369C37.4987 12.7182 37.5067 12.6995 37.5136 12.6812C37.5147 12.6778 37.991 11.4817 37.6006 10.7996C37.2922 10.2611 36.7575 9.75962 36.1297 9.36842C35.4885 8.96882 34.7503 8.68296 34.058 8.58869C32.2318 8.33985 31.6895 9.3043 31.5494 9.56001C32.031 9.31422 32.9619 9.48902 33.4558 9.55619C34.1275 9.64779 34.8408 9.92335 35.4587 10.3081C36.0644 10.6855 36.5789 11.1668 36.8739 11.6816C37.001 11.9038 37.0109 12.1858 36.9808 12.4339C36.7228 12.285 36.4525 12.1351 36.1694 11.9839C34.5763 11.1343 32.5757 10.2527 30.0651 9.36727C30.0724 9.24056 30.0796 9.08447 30.0842 8.91196C30.1155 7.69447 30.0403 5.26636 29.1175 3.447C29.1133 3.43898 29.1083 3.43211 29.1026 3.42601C29.1026 3.42601 29.1026 3.42601 29.103 3.42563C28.3011 2.56384 26.6291 1.70282 24.8356 1.06049C22.9167 0.373128 20.8504 -0.0665419 19.5577 0.00826303C19.4943 0.011698 19.4203 0.050627 19.3646 0.0739082C18.0551 0.625022 16.6701 2.20547 15.7163 4.30497C16.2858 3.60043 17.2334 1.65779 19.0379 0.973094C20.2977 0.908975 22.3129 1.34292 24.196 2.01769C25.9615 2.6501 27.6046 3.49356 28.3923 4.33435C29.1656 5.869 29.3194 7.84904 29.3262 9.11156C29.1411 9.04859 28.9534 8.986 28.7629 8.92302C27.5698 7.07466 25.7638 5.53772 23.1865 4.70189C22.1938 4.37977 21.0836 4.16146 19.847 4.0691C19.8447 4.0691 19.842 4.0691 19.8394 4.06872C19.8394 4.06872 19.8394 4.06872 19.8394 4.06796C18.0849 4.01872 16.5609 4.25001 15.2396 4.68243C14.7393 4.54846 14.2565 4.42481 13.7905 4.31069C13.8275 4.22405 13.8454 4.14963 13.8462 4.092C13.8775 3.88171 13.8588 3.63058 13.7817 3.39815C13.687 3.11152 13.5153 2.79894 13.2645 2.57949C13.1791 2.50469 13.0859 2.44095 12.9859 2.39401C12.4711 2.15051 11.8559 1.92342 11.265 1.84404C9.87238 1.65664 9.38691 2.76536 9.22203 3.18251C9.72582 2.82337 10.2388 2.75544 10.6639 2.81307C11.2357 2.89016 11.831 3.11 12.3295 3.34548C12.4207 3.38861 12.502 3.44356 12.5741 3.50654C12.7634 3.67218 12.9027 3.89965 12.9924 4.12215C10.6311 3.58058 8.72931 3.31991 7.1897 3.37105C5.04822 3.44166 3.53418 4.15154 2.40639 5.58008C1.9068 6.21287 1.50224 6.83994 1.17516 7.44715C0.893113 7.97155 0.069112 9.94701 3.19832e-05 12.0343C0.472524 10.5138 0.974403 8.77456 1.73505 7.36128C1.98656 6.89375 2.29685 6.41286 2.67889 5.9293C3.48228 4.9118 4.73183 4.40038 6.6321 4.33779C8.39879 4.2794 10.6662 4.64159 13.5844 5.37742C12.0077 6.19608 10.5872 7.78301 10.4865 8.73525C11.3406 7.77042 12.4772 6.91398 13.9775 6.32012C15.3579 5.77359 17.0078 5.46864 18.9745 5.5236C18.9745 5.5236 18.9745 5.5236 18.9745 5.52322C20.176 5.61367 21.2591 5.8274 22.232 6.14303C25.1517 7.08992 27.0557 8.95012 28.187 11.1347C29.3125 13.309 29.6724 15.7978 29.5064 18.0202C29.4316 19.0228 29.2491 19.9632 28.9827 20.7849L28.9831 20.7842ZM26.8111 10.6691C28.6301 14.7838 28.2625 21.5735 24.5166 24.1844C23.8513 24.6195 23.0651 24.9977 22.1415 25.3003C18.5799 26.0232 15.8304 25.3404 13.8565 23.9306C12.8615 23.2199 12.0619 22.3207 11.454 21.3216C10.8479 20.3258 10.4357 19.235 10.212 18.1362C9.75788 15.9047 10.0502 13.7018 11.0586 12.2896C10.1785 12.5098 8.84381 15.9337 9.45599 18.9415C9.68651 20.0743 10.1086 21.1937 10.7269 22.2097C11.3429 23.2218 12.1581 24.1367 13.1768 24.8645C16.4491 27.2018 20.979 27.1831 24.27 25.0297C28.8205 22.0532 29.7819 14.7681 26.8107 10.6683L26.8111 10.6691ZM24.5597 15.5372C25.2482 12.1083 22.1824 9.65085 20.5267 9.2314C20.1455 9.1192 19.7378 9.05508 19.3184 9.03867C18.1501 8.99287 16.8685 9.31346 15.7717 9.98327C14.5095 10.7538 13.471 11.9423 13.0023 13.535C12.8745 13.9693 12.7963 14.4303 12.7764 14.9158C12.6932 15.7036 12.7409 16.7382 13.0447 17.7954C13.2829 18.6251 13.6798 19.4713 14.2954 20.2235C13.2092 17.3092 13.1012 15.1834 13.7237 13.0678C14.0099 12.095 14.6755 11.35 15.4934 10.8508C16.4762 10.2508 17.6506 9.96495 18.7406 10.0077C19.1451 10.0233 19.5356 10.0844 19.8978 10.1909C22.2671 10.8878 24.0761 12.3423 24.5601 15.5372H24.5597ZM7.90378 10.0054C8.83045 9.91839 8.89304 8.43717 8.61023 7.80591C8.47513 7.5044 8.25796 7.21511 7.95683 6.99489C7.68051 6.79299 7.33206 6.65063 6.90995 6.61209C6.426 6.5682 6.04511 6.68956 5.75047 6.89566C5.01731 7.40899 4.48375 8.44748 5.06234 9.27339C4.91388 7.85171 6.17907 7.12694 7.27787 7.92881C7.55151 8.12841 7.74921 8.3929 7.87287 8.66922C8.13774 9.26041 7.95493 9.62947 7.90455 10.005L7.90378 10.0054ZM25.628 20.1625C25.0238 21.1403 23.8941 22.1265 23.8506 22.1627C22.7812 23.0474 21.5435 23.5314 20.1798 23.6714C17.6746 23.929 15.7358 23.2657 14.3397 22.1276C12.9447 20.9899 12.0925 19.3778 11.7585 17.7366C11.7047 17.4725 11.6646 17.21 11.6379 16.9504C11.462 17.7542 11.3887 20.4655 13.9966 22.5925C15.4095 23.7443 17.3727 24.4157 19.9115 24.1546C21.3973 24.0019 22.59 23.5325 23.7998 22.5326C24.6337 21.8425 25.2261 21.0315 25.628 20.1632V20.1625ZM18.6818 18.2862C19.2218 19.195 20.8328 18.9686 21.49 18.1385C22.0751 17.3993 22.2705 16.2837 21.9213 15.3742C21.7767 14.9979 21.5301 14.6544 21.2168 14.3853C20.4241 13.7044 18.7818 13.7624 18.37 14.8883C18.7471 14.7437 19.1318 14.7246 19.4943 14.7986C19.8802 14.8776 20.2359 15.0616 20.5279 15.3124C21.282 15.96 21.4755 17.0344 20.7771 17.8298C20.1256 18.5717 18.9131 18.374 18.6822 18.2862H18.6818ZM38.6799 20.8632C38.849 20.8101 39.0875 20.5544 39.2127 20.293C39.3379 20.0312 39.302 19.8625 39.1329 19.9155C39.1261 19.9178 36.6716 20.7052 34.7958 19.1587C34.2924 18.7438 33.7435 19.0045 33.1802 19.6877C32.6913 20.2808 31.7532 22.7158 31.0074 25.9373C31.8135 24.4241 32.1642 21.6002 33.4126 20.0861C33.5859 19.8758 33.8115 19.8423 34.1095 20.088C36.0663 21.7017 38.6723 20.8655 38.6799 20.8632Z" fill="#FF6B00" fill-opacity="0.5"/>
</svg>
