<svg width="93" height="100" viewBox="0 0 93 100" fill="none" xmlns="http://www.w3.org/2000/svg">
<path d="M63.7938 58.6642C65.0367 55.2153 66.6632 52.0662 65.6761 48.2616C64.5252 43.8256 62.9706 39.8292 57.8992 38.4705C54.0107 37.4314 50.1542 36.5762 46.0858 37.1716C40.9385 37.927 37.2658 41.0122 35.4155 45.4602C33.1455 50.9232 38.153 58.2806 44.0876 59.2037C49.7625 60.0869 53.655 56.3703 53.2194 50.4796C52.8797 45.8718 52.544 45.7279 48.6036 45.3163C46.6214 45.1125 46.0019 45.9197 45.3785 47.4184C44.6671 49.1328 45.6103 50.072 46.8731 50.7234C48.148 51.3828 47.9242 51.8504 47.3807 53.0333C46.3696 55.2313 45.0108 54.1403 43.7839 53.7287C41.9935 53.1292 40.2631 52.1341 40.1072 50.048C39.9514 47.9299 39.7875 45.9157 42.2533 44.3332C46.9491 41.3199 51.7287 42.5388 56.5004 43.358C57.1439 43.4699 58.4946 44.2812 59.1341 45.4082C61.4919 49.5525 60.257 57.3854 56.5364 60.5985C49.9823 66.2494 38.4687 67.3843 30.8716 61.8134C28.17 59.8352 27.5146 56.698 26.1758 53.9845C24.7811 51.159 24.6052 48.2456 25.9121 45.0445C27.043 42.271 28.5497 39.8892 30.2921 37.5273C35.0038 31.1531 42.0135 27.2966 50.1901 29.9941C51.5489 30.4417 53.0316 30.6815 54.746 29.9941C52.6839 27.6362 50.1542 26.7571 47.4206 26.1096C40.0353 24.3592 33.757 25.8499 28.3818 31.5407C24.9689 35.1495 22.615 39.3297 20.7008 43.7377C19.2301 47.1266 18.8864 50.7314 20.7527 54.4321C21.6479 56.2065 22.8189 58.0008 23.2984 59.8911C24.5573 64.8386 28.6416 67.1326 32.4981 68.6152C40.8785 71.8323 49.3909 70.8892 57.3796 66.653C60.6127 64.9385 62.507 62.237 63.7938 58.6602V58.6642Z" fill="#FBBA5C" fill-opacity="0.3"/>
<path d="M45.85 81.6074C45.1627 80.5564 44.4793 79.4854 43.0766 79.881C41.7298 80.2607 41.2462 81.5715 41.3701 82.7744C41.8816 87.618 42.613 92.4297 43.0086 97.2933C43.1125 98.5561 44.1236 100.243 45.87 99.9708C47.5885 99.7031 48.5316 98.676 48.6395 96.518C48.7714 93.9083 46.6333 91.6424 47.8123 88.9928C46.8332 86.6309 47.3287 83.8694 45.8461 81.6074H45.85Z" fill="#FBBA5C" fill-opacity="0.3"/>
<path d="M64.1575 23.5918C64.9608 23.6997 65.78 23.416 66.1677 22.8605C67.3306 21.186 69.0731 20.1149 70.3519 18.6083C71.5149 17.2415 72.5379 15.7029 73.3412 14.1004C73.7289 13.333 74.1805 12.2301 73.3492 11.2949C72.6498 10.5076 71.7746 10.6795 71.0633 11.0871C67.4705 13.1492 63.8578 15.2433 61.7477 19.0199C60.5887 21.098 61.9635 23.5798 64.1495 23.5838L64.1575 23.5918Z" fill="#FBBA5C" fill-opacity="0.3"/>
<path d="M41.2182 0.101078C39.6357 -0.382485 38.4647 0.968293 38.2769 2.04732C37.5416 6.34344 37.3417 10.7195 38.4847 14.9956C38.8404 16.3184 40.0713 17.0657 41.53 16.6741C42.7449 16.3464 43.7 15.671 43.4642 14.1164C42.9806 10.9033 42.5011 7.68623 43.3963 4.37322C42.8328 2.92653 43.3483 0.75649 41.2182 0.105078V0.101078Z" fill="#FBBA5C" fill-opacity="0.3"/>
<path d="M71.0113 42.2829C70.5797 44.1493 72.0144 45.0245 73.1574 44.6688C77.2936 43.39 81.8455 43.334 85.4823 40.4366C86.7251 39.4455 86.8011 38.3945 86.3015 37.3394C85.6901 36.0566 84.4792 35.545 83.0365 36.2484C80.0592 37.7031 76.886 38.5423 73.6729 39.2776C72.0864 39.6373 71.0873 40.6005 71.0113 42.2789V42.2829Z" fill="#FBBA5C" fill-opacity="0.3"/>
<path d="M75.6032 60.0989C75.4633 61.1499 75.9988 62.2449 77.4095 62.4847C81.2621 63.1441 85.1066 63.8635 87.8121 64.351C91.9484 64.2951 92.8516 63.7476 92.8876 61.9532C92.9195 60.1868 91.8005 59.4594 90.2779 59.3156C86.2056 58.9319 82.1293 58.6322 78.049 58.3085C76.7222 58.2006 75.747 58.9879 75.5992 60.0989H75.6032Z" fill="#FBBA5C" fill-opacity="0.3"/>
<path d="M19.6857 25.562C20.6089 26.2534 22.2074 27.2126 23.3704 25.6899C24.5013 24.2113 24.5133 22.5128 23.2025 21.1301C21.1883 19.004 19.314 16.762 17.9353 14.1963C17.2599 12.9375 16.5725 11.8145 15.1298 12.0822C13.4593 12.3899 13.7271 13.9565 13.5872 15.3073C14.4464 19.3996 16.2768 23.0044 19.6857 25.5581V25.562Z" fill="#FBBA5C" fill-opacity="0.3"/>
<path d="M3.77605 35.8128C2.6211 34.8896 1.66596 35.7249 0.902649 36.5281C0.187295 37.2795 -0.400174 38.2466 0.347151 39.2657C1.11446 40.3127 2.0656 41.2799 3.36842 41.6116C6.68143 42.4548 10.0064 43.2621 13.3474 43.9694C15.1218 44.3451 15.9051 43.31 15.989 41.8473C16.041 39.945 14.9699 38.922 12.692 38.6143C9.55483 38.1906 6.40168 37.9109 3.77605 35.8088V35.8128Z" fill="#FBBA5C" fill-opacity="0.3"/>
<path d="M3.22055 69.3785C6.7134 67.0486 10.9136 65.9816 14.1667 63.2161C14.906 62.5886 14.7501 61.4777 14.4624 60.5785C14.2186 59.8072 13.4673 59.8072 12.8199 59.8511C8.35192 60.1628 4.45144 61.8573 1.21037 64.9185C0.419085 65.6659 0.255233 66.8168 0.87867 67.9518C1.39021 68.879 2.04961 69.3385 3.22055 69.3785Z" fill="#FBBA5C" fill-opacity="0.3"/>
<path d="M61.6238 75.3691C62.7628 78.774 65.2245 81.08 67.9421 83.278C69.2569 84.341 70.212 84.6287 71.4909 83.5417C72.7897 82.4307 72.8337 81.1998 71.8266 79.889C70.212 77.7949 68.5815 75.7168 66.967 73.6267C66.2516 72.6995 65.3844 72.0761 63.618 72.184C62.3232 72.4518 60.8565 73.0672 61.6278 75.3691H61.6238Z" fill="#FBBA5C" fill-opacity="0.3"/>
<path d="M23.9978 86.3512C25.1647 86.595 26.3636 86.1554 27.043 85.0124C28.6816 82.2509 29.4529 79.1697 30.2401 76.4761C30.2761 75.2493 30.2481 74.3421 29.3609 73.9544C28.5777 73.6107 27.6905 73.7586 27.043 74.3501C24.3734 76.7919 22.9188 79.917 22.4951 83.4379C22.3713 84.4569 22.5431 86.0475 24.0018 86.3472L23.9978 86.3512Z" fill="#FBBA5C" fill-opacity="0.3"/>
</svg>
