<svg width="43" height="43" viewBox="0 0 43 43" fill="none" xmlns="http://www.w3.org/2000/svg">
<path fill-rule="evenodd" clip-rule="evenodd" d="M35.6432 5.17108C30.729 9.91141 28.8957 14.1997 30.1432 18.0362C32.7241 17.5112 35.1091 17.8485 37.2983 19.0481C39.4876 20.2478 40.9518 21.9844 41.6911 24.2578C42.4766 26.6733 42.3493 28.9667 41.3091 31.138C40.269 33.3092 38.5526 34.7839 36.1598 35.5619C33.48 36.4334 30.8086 36.1106 28.1458 34.5936C25.483 33.0766 23.651 30.7788 22.6499 27.7002C19.6465 18.4643 22.5139 9.54528 31.252 0.942857L35.6432 5.17108ZM15.0396 11.871C10.0775 16.6269 8.22031 20.923 9.46786 24.7595C12.0966 24.2189 14.5055 24.5484 16.6948 25.7481C18.884 26.9478 20.3482 28.6843 21.0875 30.9578C21.873 33.3733 21.7337 35.6706 20.6697 37.8496C19.6056 40.0286 17.8772 41.5072 15.4845 42.2852C12.8046 43.1567 10.1452 42.83 7.50633 41.3052C4.86742 39.7804 3.04744 37.4788 2.04631 34.4001C-0.957048 25.1643 1.88638 16.253 10.5767 7.66616L15.0396 11.871Z" fill="#2EC5CE" fill-opacity="0.4"/>
</svg>
