<svg width="45" height="37" viewBox="0 0 45 37" fill="none" xmlns="http://www.w3.org/2000/svg">
<path fill-rule="evenodd" clip-rule="evenodd" d="M0.707449 9.74197C7.28224 11.5837 10.9305 14.4891 11.6522 18.4582C9.13116 19.2203 7.19161 20.6487 5.83352 22.7434C4.47542 24.838 4.01023 27.0613 4.43793 29.4134C4.89236 31.9124 6.09239 33.8709 8.03807 35.2889C9.98375 36.7068 12.1943 37.1907 14.6698 36.7406C17.4423 36.2364 19.6408 34.685 21.2653 32.0864C22.8897 29.4877 23.4124 26.5958 22.8332 23.4108C21.0957 13.8555 14.3404 7.36423 2.56717 3.9367L0.707449 9.74197ZM22.0235 5.86587C28.6478 7.6986 32.3207 10.5995 33.0425 14.5686C30.4719 15.3397 28.5076 16.7726 27.1495 18.8673C25.7915 20.9619 25.3263 23.1852 25.754 25.5373C26.2084 28.0363 27.4208 29.9926 29.3912 31.406C31.3617 32.8195 33.5846 33.3011 36.0601 32.851C38.8326 32.3468 41.0187 30.7977 42.6184 28.2035C44.2181 25.6093 44.7284 22.7197 44.1492 19.5347C42.4117 9.97942 35.6812 3.48363 23.9575 0.0470989L22.0235 5.86587Z" fill="#2EC5CE" fill-opacity="0.4"/>
</svg>
