<svg width="100" height="100" viewBox="0 0 100 100" fill="none" xmlns="http://www.w3.org/2000/svg">
<circle cx="50" cy="50" r="50" fill="#FF6B00" fill-opacity="0.5"/>
<path d="M50.4999 65.2014C56.5227 65.2014 61.4051 60.319 61.4051 54.2963C61.4051 48.2735 56.5227 43.3911 50.4999 43.3911C44.4772 43.3911 39.5948 48.2735 39.5948 54.2963C39.5948 60.319 44.4772 65.2014 50.4999 65.2014ZM50.4999 49.7529C53.0092 49.7529 55.0433 51.7871 55.0433 54.2963C55.0433 56.8054 53.0092 58.8397 50.4999 58.8397C47.9906 58.8397 45.9566 56.8056 45.9566 54.2963C45.9566 51.787 47.9906 49.7529 50.4999 49.7529Z" fill="white"/>
<path d="M57.1795 29.1521H43.8203C42.9523 29.1521 42.1635 29.6562 41.799 30.444C41.1159 31.92 42.1938 33.6069 43.8204 33.6069H57.1796C58.8062 33.6069 59.8842 31.92 59.2009 30.444C58.8364 29.6562 58.0475 29.1521 57.1795 29.1521Z" fill="white"/>
<path d="M73.3255 47.9225C74.4161 47.9225 75.3002 47.0382 75.3002 45.9477C75.3002 44.857 74.4161 43.9729 73.3255 43.9729C72.2349 43.9729 71.3507 44.857 71.3507 45.9477C71.3507 47.0384 72.2349 47.9225 73.3255 47.9225Z" fill="white"/>
<path d="M76.8478 32.3765H67.9354C67.1688 32.3765 66.472 31.8946 66.2016 31.1773L64.6418 27.0394C63.731 24.6232 61.384 23 58.802 23H42.198C39.616 23 37.269 24.6232 36.3582 27.0394L34.7982 31.1773C34.5279 31.8946 33.8312 32.3765 33.0645 32.3765H32.8577V30.0311C32.8577 28.6104 31.7018 27.4547 30.2812 27.4547H25.6833C24.2626 27.4547 23.1069 28.6106 23.1069 30.0311V32.4832C20.7655 32.9677 19 35.0459 19 37.5288V71.7673C19 74.6082 21.3113 76.9194 24.1522 76.9194H76.8478C79.6887 76.9194 82 74.6082 82 71.7673V37.5288C82 34.6878 79.6887 32.3765 76.8478 32.3765ZM25.5679 30.0311C25.5679 29.9674 25.6197 29.9156 25.6833 29.9156H30.2812C30.3449 29.9156 30.3967 29.9675 30.3967 30.0311V32.3765H25.5679V30.0311ZM21.4609 41.4627H38.8624C35.3663 44.6359 33.1677 49.214 33.1677 54.2961C33.1677 59.3782 35.3665 63.9563 38.8625 67.1295H21.4609V41.4627ZM50.5 39.4247C58.7001 39.4247 65.3713 46.096 65.3713 54.2961C65.3713 62.4962 58.7 69.1674 50.5 69.1674C42.3 69.1674 35.6287 62.4961 35.6287 54.2961C35.6287 46.096 42.2999 39.4247 50.5 39.4247ZM79.5391 71.7673C79.5391 73.2512 78.3317 74.4584 76.8478 74.4584H24.1522C22.6683 74.4585 21.4609 73.2512 21.4609 71.7673V69.5904H42.3532C44.7834 70.8901 47.557 71.6283 50.5 71.6283C53.443 71.6283 56.2168 70.8901 58.6468 69.5904H79.5391V71.7673ZM79.5391 67.1295H62.1375C65.6335 63.9563 67.8323 59.3782 67.8323 54.2961C67.8323 49.214 65.6335 44.6359 62.1377 41.4627H79.5391V67.1295ZM79.5391 39.0017H58.6471C56.2169 37.702 53.4432 36.9637 50.5 36.9637C47.5568 36.9637 44.7831 37.702 42.3529 39.0017H21.4609V37.5286C21.4609 36.0446 22.6683 34.8373 24.1522 34.8373H33.0646C34.8494 34.8373 36.4715 33.7153 37.1012 32.0453L38.6612 27.9074C39.2128 26.444 40.6342 25.4608 42.1982 25.4608H58.802C60.3659 25.4608 61.7873 26.444 62.339 27.9074L63.8989 32.0453C64.5285 33.7153 66.1507 34.8373 67.9355 34.8373H76.8479C78.332 34.8373 79.5392 36.0447 79.5392 37.5286V39.0017H79.5391Z" fill="white"/>
</svg>
