<svg width="100" height="100" viewBox="0 0 100 100" fill="none" xmlns="http://www.w3.org/2000/svg">
<circle cx="50" cy="50" r="50" fill="#FF6B00" fill-opacity="0.5"/>
<path d="M26.2 49.0361V46.6768L24.6287 48.4367C23.4994 49.7015 22.825 51.3807 22.825 53.2C22.825 55.0193 23.4994 56.6985 24.6287 57.9633L26.2 59.7232V57.3639V49.0361ZM26.2 63.1619V62.5936L25.6869 62.3493C22.2663 60.7204 19.9 57.2387 19.9 53.2C19.9 47.6038 24.4288 43.075 30.025 43.075H33.175C34.9518 43.075 36.6171 43.5287 38.0644 44.3269C35.4546 47.0317 33.85 50.7196 33.85 54.775C33.85 58.2488 35.0268 61.4504 37 63.9968V65.8C37 67.0453 35.9953 68.05 34.75 68.05H28.45C27.2047 68.05 26.2 67.0453 26.2 65.8V63.1619ZM67.15 54.775C67.15 50.7212 65.5468 47.0355 62.9402 44.3244C64.3865 43.5278 66.0501 43.075 67.825 43.075H70.975C76.5712 43.075 81.1 47.6038 81.1 53.2C81.1 57.2387 78.7337 60.7204 75.3131 62.3493L74.8 62.5936V63.1619V65.8C74.8 67.0453 73.7953 68.05 72.55 68.05H66.25C65.0047 68.05 64 67.0453 64 65.8V63.9968C65.9732 61.4504 67.15 58.2488 67.15 54.775ZM74.8 57.3737V59.7488L76.374 57.9702C77.4992 56.6987 78.175 55.0313 78.175 53.2098C78.175 51.3905 77.5006 49.7113 76.3713 48.4465L75.711 49.0361H75.7H74.8V49.0459V49.3893V57.3737ZM43.526 59.5353L45.1 61.3139V58.9389V50.6111V48.236L43.526 50.0146C42.4008 51.2862 41.725 52.9535 41.725 54.775C41.725 56.5965 42.4008 58.2638 43.526 59.5353ZM55.9 58.9487V61.3238L57.474 59.5452C58.5992 58.2737 59.275 56.6063 59.275 54.7848C59.275 52.9655 58.6006 51.2863 57.4713 50.0215L56.811 50.6111H56.8H55.9V50.6209V50.9643V58.9487ZM56.4131 63.9243L55.9 64.1686V64.7369V68.95C55.9 70.1953 54.8953 71.2 53.65 71.2H47.35C46.1047 71.2 45.1 70.1953 45.1 68.95V64.7369V64.1686L44.5869 63.9243C41.1663 62.2954 38.8 58.8137 38.8 54.775C38.8 49.1788 43.3288 44.65 48.925 44.65H52.075C57.6712 44.65 62.2 49.1788 62.2 54.775C62.2 58.8137 59.8337 62.2954 56.4131 63.9243ZM36.2125 33.5125C36.2125 36.0572 34.1447 38.125 31.6 38.125C29.0553 38.125 26.9875 36.0572 26.9875 33.5125C26.9875 30.9678 29.0553 28.9 31.6 28.9C34.1447 28.9 36.2125 30.9678 36.2125 33.5125ZM74.0125 33.5125C74.0125 36.0572 71.9447 38.125 69.4 38.125C66.8553 38.125 64.7875 36.0572 64.7875 33.5125C64.7875 30.9678 66.8553 28.9 69.4 28.9C71.9447 28.9 74.0125 30.9678 74.0125 33.5125ZM50.5 39.7C47.5222 39.7 45.1 37.2778 45.1 34.3C45.1 31.3222 47.5222 28.9 50.5 28.9C53.4778 28.9 55.9 31.3222 55.9 34.3C55.9 37.2778 53.4778 39.7 50.5 39.7Z" stroke="white" stroke-width="1.8"/>
</svg>
