<svg width="100" height="100" viewBox="0 0 100 100" fill="none" xmlns="http://www.w3.org/2000/svg">
<circle cx="50" cy="50" r="50" fill="#FF6B00" fill-opacity="0.5"/>
<path d="M60.5742 28.4141H27.1055C25.07 28.4141 23.4141 30.07 23.4141 32.1055V55.7305C23.4141 57.7659 25.07 59.4219 27.1055 59.4219H60.5742C62.6097 59.4219 64.2656 57.7659 64.2656 55.7305V32.1055C64.2656 30.07 62.6097 28.4141 60.5742 28.4141ZM61.8047 55.7305C61.8047 55.9083 61.766 56.0768 61.6979 56.2297L54.0107 44.9525C53.5266 44.2423 52.482 44.2347 51.9875 44.9377L45.517 54.1366L35.6003 39.4667C35.1169 38.7517 34.0667 38.7435 33.5723 39.451L25.875 50.4633V32.1055C25.875 31.427 26.427 30.875 27.1055 30.875H60.5742C61.2527 30.875 61.8047 31.427 61.8047 32.1055V55.7305Z" fill="white"/>
<path d="M79.7695 34.3203H75.3398V29.8906C75.3398 29.2112 74.789 28.6602 74.1094 28.6602H69.6797V24.2305C69.6797 23.551 69.1288 23 68.4492 23H19.2305C18.5509 23 18 23.551 18 24.2305V63.6055C18 64.2849 18.5509 64.8359 19.2305 64.8359H23.6602V69.2656C23.6602 69.9451 24.211 70.4961 24.8906 70.4961H29.3203V74.9258C29.3203 75.6052 29.8712 76.1562 30.5508 76.1562H79.7695C80.4491 76.1562 81 75.6052 81 74.9258V35.5508C81 34.8713 80.4491 34.3203 79.7695 34.3203ZM20.4609 62.375V25.4609H67.2188V62.375H20.4609ZM26.1211 68.0352V64.8359H68.4492C69.1288 64.8359 69.6797 64.2849 69.6797 63.6055V31.1211H72.8789V68.0352H26.1211ZM78.5391 73.6953H31.7812V70.4961H74.1094C74.789 70.4961 75.3398 69.9451 75.3398 69.2656V36.7812H78.5391V73.6953Z" fill="white"/>
</svg>
