<svg width="100" height="100" viewBox="0 0 100 100" fill="none" xmlns="http://www.w3.org/2000/svg">
<circle cx="50" cy="50" r="50" fill="#FF6B00" fill-opacity="0.5"/>
<path d="M68.4119 22H53.0455C52.5678 21.9997 52.1094 22.1884 51.7705 22.525L21.05 53.238C20.3775 53.9137 20 54.8283 20 55.7817C20 56.7351 20.3775 57.6497 21.05 58.3255L35.6752 72.9507C36.3512 73.6233 37.266 74.0009 38.2196 74.0009C39.1732 74.0009 40.088 73.6233 40.764 72.9507L71.4757 42.2503C71.8123 41.9114 72.0011 41.453 72.0007 40.9753V25.6001C72.003 25.1276 71.9119 24.6593 71.7325 24.2223C71.5531 23.7852 71.289 23.3879 70.9554 23.0533C70.6219 22.7187 70.2254 22.4533 69.7889 22.2726C69.3524 22.0918 68.8844 21.9992 68.4119 22Z" stroke="white" stroke-width="2.4" stroke-linecap="round" stroke-linejoin="round"/>
<path d="M61.9993 35.9991C61.2081 35.9991 60.4348 35.7645 59.777 35.325C59.1191 34.8855 58.6064 34.2608 58.3037 33.5298C58.0009 32.7989 57.9217 31.9946 58.0761 31.2187C58.2304 30.4428 58.6114 29.73 59.1708 29.1706C59.7302 28.6112 60.443 28.2302 61.2189 28.0759C61.9948 27.9215 62.7991 28.0008 63.53 28.3035C64.2609 28.6063 64.8857 29.119 65.3252 29.7768C65.7647 30.4346 65.9993 31.2079 65.9993 31.9991C65.9993 33.06 65.5779 34.0774 64.8277 34.8275C64.0776 35.5777 63.0601 35.9991 61.9993 35.9991Z" fill="white"/>
<path d="M46.7491 77.9997L79.4995 45.2493C79.6624 45.085 79.7905 44.8897 79.8764 44.675C79.9623 44.4603 80.0042 44.2305 79.9995 43.9992V27.999" stroke="white" stroke-width="2.4" stroke-linecap="round" stroke-linejoin="round"/>
</svg>
