<svg width="347" height="328" viewBox="0 0 347 328" fill="none" xmlns="http://www.w3.org/2000/svg">
<path d="M306.6 22.8077C305.99 21.9424 305.264 21.7205 303.892 22.5457C302.134 23.5841 300.449 24.7379 298.736 25.8497C291.683 30.4529 284.621 35.0355 277.586 39.68C276.881 40.1414 276.296 40.2002 275.529 39.9855C270.385 38.5886 265.141 37.6057 260.051 36.0121C259.639 35.8826 259.215 35.7924 258.788 35.7321C256.327 35.3774 255.207 36.7517 256.088 39.0296C256.308 39.6066 256.589 40.1679 256.881 40.7099C259.453 45.5838 262.015 50.4669 264.639 55.3144C265.197 56.3465 265.229 57.1708 264.742 58.249C261.378 65.6899 258.091 73.1764 254.775 80.6408C254.525 81.2045 254.234 81.7654 254.082 82.3562C253.769 83.527 254.303 84.3267 255.508 84.4521C256.244 84.5243 256.99 84.4669 257.735 84.4294C283.656 83.0573 309.578 81.6952 335.5 80.3131C337.533 80.2064 339.567 80.3605 341.584 80.0422C342.79 79.857 342.917 79.6254 342.496 78.4928C341.99 77.1437 327.659 55.2766 321.324 45.5046C316.506 38.0757 311.69 30.6368 306.62 22.8091L306.6 22.8077ZM269.585 59.2236C288.769 65.0836 307.952 70.9535 327.135 76.8334C327.478 76.9379 328.037 76.8371 328.118 77.5246C304.793 78.7598 281.508 79.9878 258.123 81.2188C258.218 80.8646 258.24 80.6958 258.301 80.5397C261.332 73.6967 264.353 66.853 267.404 60.0115C267.964 58.7579 268.025 58.7422 269.585 59.2236ZM286.023 53.4705C298.896 59.6855 311.759 65.8998 324.632 72.1148C325.464 72.2539 326.181 72.6055 327.01 73.3559C325.941 73.3102 325.212 73.1183 324.552 72.6805C308.567 67.799 292.582 62.9075 276.597 58.026C274.35 57.3356 272.119 56.566 269.833 56.0031C268.799 55.7494 268.123 55.3807 267.644 54.3643C266.756 52.4569 265.702 50.6378 264.711 48.7732C263.464 46.4292 262.205 44.0945 260.86 41.5831C261.785 41.6787 262.349 42.0695 262.95 42.3527C270.648 46.0558 278.336 49.7582 286.023 53.4705ZM298.14 56.4841C300.998 57.7392 303.636 59.4198 306.367 60.9165C306.337 61.0647 306.316 61.2136 306.286 61.3518C306.074 61.2365 305.862 61.1212 305.649 61.0059C303.212 59.7506 300.634 58.786 298.301 57.3276C294.965 55.7379 291.617 54.1675 288.293 52.5586C280.693 48.8925 273.095 45.1965 265.496 41.5205C264.687 41.3329 263.956 41.0305 263.117 40.2794C264.175 40.3542 264.896 40.4956 265.571 40.8742C268.578 41.5884 271.586 42.2927 274.593 43.0169C274.997 43.1157 291.542 52.8288 298.131 56.4734L298.14 56.4841ZM305.53 27.0226C310.227 34.3126 314.923 41.6027 319.641 48.8841C324.557 56.4704 329.504 64.0488 334.441 71.6266C334.686 71.9948 335.011 72.3487 334.943 73.0255C316.369 62.8078 297.939 52.6704 279.5 42.5223C279.964 41.7733 280.604 41.5178 281.16 41.1563C283.179 39.8355 285.208 38.5056 287.226 37.1849C292.671 33.6306 298.126 30.0771 303.58 26.5336C304.746 25.7741 304.753 25.8147 305.531 27.0126L305.53 27.0226Z" fill="#FDC063" fill-opacity="0.3"/>
<path d="M140.403 19.9991C141.344 19.5945 142.437 20.0228 142.841 20.9637C143.247 21.8947 142.818 22.9871 141.887 23.3924L141.37 23.6164C139.953 24.2378 138.552 24.9105 137.21 25.5974C136.295 26.054 135.187 25.7048 134.71 24.7988C134.243 23.8936 134.603 22.7762 135.509 22.299C136.923 21.5771 138.387 20.8688 139.876 20.2224L140.404 19.9891L140.403 19.9991ZM150.577 16.3487C152.276 15.8475 154.023 15.3897 155.787 14.9733C156.786 14.7433 157.785 15.3554 158.015 16.3542C158.255 17.3536 157.633 18.3522 156.634 18.5822C154.932 18.9829 153.246 19.4249 151.608 19.9104C150.625 20.2017 149.592 19.6373 149.311 18.655C149.044 17.7539 149.502 16.8039 150.34 16.4421C150.412 16.4072 150.484 16.3822 150.566 16.3579L150.577 16.3487ZM128.85 28.4139C129.453 29.2385 129.271 30.3985 128.446 31.0018C127.019 32.0436 125.65 33.1095 124.381 34.1826C123.603 34.8392 122.427 34.7459 121.771 33.9576C121.114 33.1792 121.207 32.0029 121.996 31.3469C123.329 30.2183 124.772 29.0974 126.263 28C126.369 27.9173 126.494 27.856 126.608 27.8039C127.384 27.4579 128.33 27.6953 128.851 28.4039L128.85 28.4139ZM166.39 13.0376C168.141 12.8007 169.939 12.6072 171.736 12.4437C172.754 12.3555 173.653 13.1109 173.741 14.1297C173.83 15.1484 173.074 16.0473 172.055 16.1356C170.32 16.2933 168.572 16.4803 166.872 16.7108C165.86 16.8496 164.928 16.132 164.789 15.1197C164.678 14.2797 165.144 13.5007 165.879 13.1818C166.034 13.1126 166.198 13.064 166.38 13.0369L166.39 13.0376ZM116.914 38.8366C117.71 39.4845 117.828 40.6458 117.19 41.4427C116.103 42.7892 115.112 44.1727 114.253 45.5554C113.71 46.4292 112.568 46.6892 111.704 46.1469C110.831 45.6038 110.571 44.4625 111.113 43.5987C112.053 42.0813 113.132 40.5738 114.319 39.1039C114.516 38.8673 114.749 38.6933 115.008 38.5713C115.618 38.3038 116.365 38.3767 116.925 38.8274L116.914 38.8366ZM182.465 11.9806C184.24 11.976 186.042 12.0134 187.831 12.08C188.851 12.1221 189.652 12.9809 189.61 14.0004C189.568 15.02 188.699 15.8206 187.69 15.7792C185.951 15.7062 184.199 15.6723 182.474 15.6804C181.451 15.6782 180.617 14.8572 180.619 13.8348C180.613 13.0725 181.07 12.4232 181.722 12.1385C181.95 12.0343 182.204 11.9822 182.465 11.9806ZM88.1894 54.5867C89.1296 54.1921 90.2207 54.6403 90.6152 55.5805C91.0005 56.5101 90.5737 57.5826 89.6527 57.9885L89.6214 58.0064C88.0202 58.6749 86.4361 59.3848 84.8598 60.1253C83.9367 60.5611 82.8314 60.1721 82.3962 59.239C81.9604 58.3159 82.3494 57.2106 83.2825 56.7755C84.2469 56.3225 85.2106 55.8794 86.1836 55.4471C86.846 55.1532 87.5177 54.8699 88.1894 54.5867ZM98.3036 50.9221C99.9227 50.4252 101.56 49.9597 103.163 49.5419L103.49 49.4548C104.48 49.2041 105.49 49.807 105.741 50.7972C105.992 51.7874 105.399 52.788 104.399 53.048L104.102 53.1272C102.54 53.5279 100.964 53.9777 99.3965 54.4581C98.4228 54.7601 97.3787 54.2149 97.0774 53.2312C96.8011 52.3194 97.2494 51.3687 98.0984 50.9877C98.1604 50.962 98.2324 50.9371 98.3043 50.9121L98.3036 50.9221ZM76.3137 62.4573C76.8329 63.3362 76.5415 64.4785 75.6527 64.997C74.167 65.8742 72.6784 66.7913 71.2177 67.7405C70.3659 68.3017 69.2109 68.0495 68.6596 67.1984C68.0991 66.3367 68.3506 65.1916 69.2024 64.6304C70.7051 63.6541 72.2463 62.7006 73.7733 61.8062C73.836 61.7706 73.8987 61.7349 73.9706 61.7099C74.819 61.3389 75.8295 61.6511 76.313 62.4673L76.3137 62.4573ZM63.0542 71.1824C63.6788 71.9885 63.5363 73.1514 62.7294 73.7859C61.3607 74.8519 59.9991 75.9585 58.6767 77.0778C57.8977 77.7445 56.7221 77.6411 56.0654 76.8628C55.3988 76.0838 55.5014 74.9181 56.2804 74.2515C57.6348 73.1043 59.0392 71.9607 60.4499 70.8676C60.5767 70.7763 60.7028 70.695 60.8473 70.6351C61.6031 70.2976 62.5201 70.513 63.0535 71.1923L63.0542 71.1824ZM114.201 47.5568C116.108 47.391 117.965 47.3522 119.724 47.4266C120.744 47.4688 121.544 48.3375 121.502 49.3571C121.46 50.3766 120.602 51.168 119.572 51.1351C117.972 51.072 116.265 51.1115 114.52 51.2586C113.502 51.3468 112.603 50.5914 112.514 49.5726C112.441 48.7655 112.915 48.0271 113.618 47.716C113.804 47.6389 113.999 47.5825 114.21 47.5674L114.201 47.5568ZM198.538 12.9385C200.307 13.154 202.093 13.4109 203.857 13.6962C204.868 13.858 205.553 14.8088 205.391 15.8199C205.229 16.831 204.279 17.5155 203.267 17.3537C201.553 17.0719 199.816 16.8285 198.097 16.6165C197.083 16.4946 196.356 15.5709 196.478 14.557C196.556 13.8808 196.995 13.3405 197.575 13.0808C197.865 12.951 198.2 12.8945 198.538 12.9385ZM108.932 52.4567C109.927 52.6977 110.538 53.6933 110.307 54.6895C109.924 56.2864 109.697 57.9245 109.61 59.5825C109.558 60.6013 108.69 61.392 107.671 61.3399C106.652 61.2878 105.861 60.4197 105.914 59.4009C106.007 57.5227 106.27 55.6467 106.71 53.8232C106.852 53.2317 107.255 52.7791 107.772 52.555C108.124 52.3995 108.538 52.3487 108.942 52.4475L108.932 52.4567ZM51.0039 81.5168C51.7247 82.2396 51.7318 83.413 51.0091 84.1338C49.7794 85.36 48.5668 86.6275 47.3941 87.8978C46.6992 88.6506 45.5329 88.6983 44.7801 88.0034C44.0273 87.3084 43.9796 86.1422 44.6745 85.3894C45.88 84.0813 47.1253 82.776 48.3877 81.512C48.5601 81.3438 48.7495 81.2168 48.9568 81.1212C49.6398 80.8187 50.4529 80.9465 51.0146 81.5076L51.0039 81.5168ZM130.655 49.7748L131.122 49.9783C132.687 50.6805 134.205 51.6001 135.611 52.7022C136.419 53.3308 136.567 54.4942 135.938 55.3018C135.31 56.1094 134.146 56.2576 133.339 55.629C132.16 54.7134 130.901 53.9526 129.6 53.3591L129.201 53.1805C128.257 52.7828 127.823 51.6895 128.221 50.7452C128.413 50.2977 128.768 49.9619 129.181 49.7806C129.637 49.5823 130.169 49.5599 130.655 49.7748ZM214.372 15.8444C216.115 16.2787 217.856 16.7529 219.555 17.2541C220.537 17.5442 221.096 18.5762 220.805 19.5582C220.515 20.5402 219.483 21.0987 218.501 20.8086C216.852 20.3208 215.16 19.8601 213.475 19.4401C212.481 19.1892 211.88 18.1842 212.13 17.1994C212.272 16.618 212.674 16.1753 213.181 15.9506C213.543 15.7957 213.958 15.7449 214.371 15.8544L214.372 15.8444ZM40.3183 93.2513C41.1259 93.8799 41.274 95.0432 40.6354 95.8501C39.6537 97.1139 38.6798 98.4084 37.7458 99.7057L37.5671 99.9637L36.0148 98.9515L34.5628 97.796L34.7408 97.548C35.7082 96.2029 36.7148 94.8707 37.7193 93.5685C37.9173 93.3218 38.1615 93.1286 38.43 93.0173C39.0305 92.749 39.7573 92.8206 40.3183 93.2513ZM108.622 68.1541C109.579 67.8008 110.647 68.2975 110.999 69.2648C111.158 69.7171 111.337 70.1609 111.527 70.5954C111.993 71.661 112.543 72.6724 113.159 73.5982C113.72 74.45 113.488 75.5965 112.636 76.1677C111.784 76.7289 110.638 76.4973 110.066 75.6448C109.333 74.5402 108.676 73.3408 108.123 72.0886C107.898 71.5815 107.695 71.0558 107.501 70.5308C107.166 69.6048 107.608 68.5936 108.498 68.2055C108.539 68.1883 108.571 68.1705 108.611 68.1633L108.622 68.1541ZM31.1601 106.207C32.0353 106.73 32.326 107.863 31.8021 108.748C30.9146 110.239 30.0448 111.762 29.2257 113.278C28.741 114.176 27.6148 114.507 26.7168 114.022C25.8188 113.538 25.4876 112.411 25.9722 111.513C26.8148 109.949 27.7073 108.388 28.6276 106.859C28.8326 106.513 29.131 106.263 29.4722 106.117C30 105.884 30.6305 105.898 31.1693 106.217L31.1601 106.207ZM229.722 20.7712C231.408 21.452 233.072 22.1713 234.674 22.9063C235.606 23.3333 236.009 24.4345 235.582 25.3667C235.155 26.2988 234.054 26.702 233.122 26.2751C231.578 25.5643 229.973 24.8692 228.346 24.2125C227.4 23.8348 226.935 22.7492 227.313 21.8036C227.497 21.3354 227.862 20.9903 228.286 20.7998C228.711 20.6094 229.244 20.5869 229.722 20.7712ZM140.176 60.7148C141.117 60.3202 142.208 60.7584 142.603 61.6986C143.393 63.5691 143.879 65.4782 144.036 67.374C144.124 68.3928 143.369 69.2817 142.34 69.3792C141.321 69.4675 140.423 68.7021 140.344 67.684C140.22 66.1815 139.828 64.6499 139.193 63.1413C138.797 62.2111 139.225 61.1285 140.156 60.7233L140.176 60.7247L140.176 60.7148ZM23.6946 120.174C24.6275 120.591 25.0514 121.684 24.6444 122.617C23.9408 124.202 23.2641 125.828 22.6396 127.428C22.2618 128.373 21.1855 128.849 20.2399 128.471C19.2842 128.092 18.8191 127.017 19.1968 126.071C19.8449 124.423 20.5442 122.758 21.2614 121.125C21.4528 120.687 21.7967 120.36 22.2106 120.179C22.6657 119.981 23.2086 119.959 23.7039 120.185L23.6946 120.174ZM120.291 79.6271C121.723 80.2098 123.271 80.58 124.884 80.7344C125.9 80.8264 126.648 81.7315 126.556 82.7475C126.464 83.7636 125.559 84.5115 124.543 84.4195C122.56 84.239 120.659 83.7735 118.885 83.0564C117.94 82.6686 117.485 81.5838 117.873 80.6389C118.067 80.1714 118.422 79.8256 118.846 79.6451C119.27 79.4646 119.803 79.4322 120.291 79.6271ZM244.209 27.9727C245.766 28.925 247.289 29.9251 248.74 30.9502C249.581 31.5411 249.78 32.698 249.179 33.5277C248.589 34.368 247.432 34.5668 246.602 33.9667C245.227 32.9971 243.771 32.0419 242.282 31.1244C241.407 30.5913 241.137 29.4493 241.671 28.5748C241.875 28.2384 242.173 27.9889 242.504 27.8419C243.042 27.6093 243.683 27.6246 244.22 27.9634L244.209 27.9727ZM140.32 75.953C141.095 76.6194 141.183 77.7885 140.506 78.5626C139.229 80.0361 137.668 81.2689 135.845 82.2425C134.939 82.7197 133.82 82.3798 133.343 81.4738C132.866 80.5679 133.205 79.4491 134.111 78.9719C135.528 78.2201 136.749 77.2639 137.711 76.1391C137.896 75.9217 138.118 75.7669 138.366 75.6542C138.998 75.3781 139.763 75.4624 140.32 75.953ZM17.9753 134.967C18.9565 135.267 19.505 136.298 19.205 137.28C18.6958 138.948 18.2152 140.638 17.7866 142.302C17.5257 143.296 16.5115 143.886 15.5274 143.626C14.5334 143.365 13.9436 142.351 14.2037 141.367C14.6558 139.654 15.15 137.915 15.6619 136.207C15.8305 135.667 16.21 135.263 16.6865 135.046C17.0797 134.874 17.5335 134.835 17.9753 134.967ZM14.0395 150.337C15.0492 150.519 15.7124 151.488 15.5313 152.488C15.2203 154.19 14.9371 155.925 14.6951 157.642C14.5533 158.654 13.611 159.36 12.5985 159.218C11.586 159.076 10.8809 158.134 11.0227 157.121C11.2782 155.355 11.5649 153.571 11.8788 151.828C11.9938 151.195 12.4097 150.703 12.9581 150.461C13.2893 150.314 13.6534 150.27 14.0296 150.337L14.0395 150.337ZM11.8831 166.064C12.9005 166.136 13.6805 167.014 13.6084 168.031C13.4855 169.767 13.411 171.526 13.3593 173.247C13.3272 174.267 12.4777 175.079 11.4574 175.047C10.4372 175.015 9.62516 174.165 9.65732 173.145C9.71254 171.374 9.78984 169.575 9.9163 167.79C9.96716 167.071 10.41 166.481 11.0204 166.214C11.2789 166.102 11.5738 166.042 11.8831 166.064ZM11.5107 181.938C12.5366 181.89 13.4028 182.683 13.4404 183.708C13.5177 185.448 13.6342 187.201 13.7727 188.925C13.861 189.944 13.0956 190.842 12.0776 190.92C11.0588 191.008 10.1606 190.243 10.0823 189.225C9.93665 187.46 9.82368 185.658 9.73925 183.877C9.70458 183.093 10.1652 182.394 10.8475 182.101C11.0541 182.016 11.2685 181.961 11.51 181.948L11.5107 181.938ZM12.8967 197.755C13.9105 197.596 14.8542 198.285 15.013 199.298C15.2826 201.012 15.5807 202.747 15.9116 204.445C16.111 205.451 15.4511 206.417 14.4445 206.617C13.4386 206.806 12.4722 206.156 12.2728 205.15C11.9347 203.411 11.6194 201.635 11.3533 199.871C11.2231 199.02 11.6908 198.221 12.4358 197.893C12.5804 197.833 12.7343 197.784 12.8967 197.755ZM16.0046 213.324C16.9962 213.053 18.0075 213.636 18.2782 214.627C18.7309 216.304 19.2228 217.993 19.7375 219.643C20.0394 220.617 19.495 221.651 18.5205 221.963C17.5468 222.265 16.5026 221.72 16.2007 220.746C15.6689 219.054 15.1698 217.325 14.7007 215.597C14.4537 214.697 14.9198 213.778 15.7375 213.415C15.8201 213.381 15.9127 213.347 15.9946 213.323L16.0046 213.324ZM20.8179 228.451C21.7667 228.078 22.8463 228.545 23.2202 229.494C23.8581 231.103 24.5353 232.725 25.2352 234.308C25.6497 235.25 25.2214 236.342 24.2805 236.747C23.3395 237.151 22.2463 236.733 21.8418 235.792C21.1248 234.167 20.4313 232.494 19.7763 230.844C19.4109 229.916 19.8463 228.864 20.7566 228.467C20.7773 228.459 20.7979 228.45 20.8186 228.441L20.8179 228.451ZM29.7928 243.704C30.6166 245.236 31.4703 246.77 32.3369 248.265C32.8554 249.154 32.5547 250.285 31.6758 250.804C30.7969 251.324 29.6554 251.022 29.1462 250.144C28.2518 248.617 27.371 247.041 26.5307 245.458C26.0535 244.552 26.3934 243.433 27.2901 242.945C27.3321 242.918 27.3734 242.901 27.4147 242.884C28.2944 242.495 29.332 242.849 29.7928 243.704ZM37.9493 257.063C38.9405 258.497 39.973 259.913 41.0084 261.29C41.6223 262.105 41.4598 263.267 40.6444 263.881C39.829 264.495 38.6676 264.332 38.0536 263.517C36.9912 262.098 35.9316 260.64 34.9126 259.174C34.3307 258.331 34.5424 257.183 35.3756 256.6C35.481 256.527 35.585 256.475 35.689 256.422C36.4853 256.077 37.4402 256.325 37.9593 257.064L37.9493 257.063ZM47.6142 269.367C48.7564 270.651 49.9477 271.948 51.1518 273.206C51.8612 273.948 51.8284 275.119 51.0964 275.829C50.3544 276.538 49.1838 276.505 48.4738 275.773C47.2326 274.473 46.0135 273.143 44.8435 271.827C44.1662 271.057 44.2389 269.89 44.9987 269.212C45.1482 269.082 45.3063 268.973 45.4816 268.905C46.1953 268.595 47.066 268.757 47.6135 269.377L47.6142 269.367ZM58.6556 280.495C59.9367 281.658 61.2683 282.815 62.5927 283.931C63.3783 284.589 63.4758 285.758 62.8187 286.544C62.1616 287.329 60.9917 287.427 60.2062 286.77C58.844 285.621 57.4839 284.442 56.1651 283.246C55.4016 282.56 55.3446 281.383 56.0296 280.629C56.214 280.432 56.4255 280.277 56.6535 280.172C57.3052 279.888 58.0797 279.993 58.6457 280.494L58.6556 280.495ZM70.8399 290.35C72.2611 291.373 73.7138 292.378 75.1407 293.321C75.9931 293.883 76.2325 295.033 75.6609 295.884C75.0992 296.737 73.9495 296.976 73.0977 296.405C71.6231 295.428 70.1419 294.401 68.6722 293.354C67.8425 292.754 67.6537 291.598 68.2538 290.768C68.4538 290.492 68.7195 290.28 69.0094 290.15C69.5892 289.891 70.2867 289.95 70.8406 290.34L70.8399 290.35ZM84.0726 298.706C85.607 299.546 87.1643 300.348 88.6958 301.088C89.6166 301.535 89.9991 302.644 89.553 303.565C89.1068 304.486 87.997 304.868 87.0763 304.422C85.4963 303.659 83.8813 302.823 82.2984 301.959C81.4011 301.464 81.0691 300.348 81.5537 299.45C81.7608 299.073 82.0706 298.805 82.4331 298.64C82.9403 298.415 83.5409 298.428 84.0626 298.705L84.0726 298.706ZM98.2532 305.144C99.8951 305.741 101.551 306.28 103.181 306.766C104.163 307.056 104.721 308.088 104.431 309.07C104.141 310.052 103.109 310.61 102.127 310.32C100.428 309.819 98.7038 309.256 96.9935 308.633C96.0358 308.285 95.5292 307.226 95.8785 306.259C96.0542 305.76 96.4315 305.386 96.876 305.197C97.2998 305.016 97.7835 304.98 98.2525 305.154L98.2532 305.144ZM113.245 309.043C114.961 309.305 116.681 309.506 118.356 309.635C119.374 309.707 120.142 310.604 120.059 311.63C119.987 312.648 119.091 313.417 118.064 313.334C116.289 313.198 114.48 312.98 112.675 312.701C111.664 312.55 110.969 311.598 111.131 310.587C111.227 309.932 111.654 309.421 112.214 309.17C112.524 309.032 112.879 308.977 113.236 309.032L113.245 309.043Z" fill="#FDC063" fill-opacity="0.3"/>
</svg>
