<svg width="40" height="36" viewBox="0 0 40 36" fill="none" xmlns="http://www.w3.org/2000/svg">
<path d="M36.2641 7.36841H7.94537V23.0987H36.2641V7.36841Z" fill="#7DD6EA"/>
<path d="M39.196 1.60807H0.804046C0.362854 1.60807 0 1.24934 0 0.804021C0 0.358706 0.358731 0 0.804046 0H39.196C39.6371 0 40 0.358706 40 0.804021C40 1.24934 39.6413 1.60807 39.196 1.60807Z" fill="#256782"/>
<path d="M27.939 35.2045H12.0561C11.6149 35.2045 11.2521 34.8458 11.2521 34.4005C11.2521 33.9552 11.6108 33.5964 12.0561 33.5964H27.939C28.3802 33.5964 28.743 33.9552 28.743 34.4005C28.743 34.8458 28.3843 35.2045 27.939 35.2045Z" fill="#256782"/>
<path d="M36.2683 23.8985H3.72739C3.28619 23.8985 2.92334 23.5398 2.92334 23.0945V0.804021C2.92334 0.362829 3.28207 0 3.72739 0C4.1727 0 4.53142 0.358706 4.53142 0.804021V22.2946H35.4684V12.1472C35.4684 11.706 35.8272 11.3431 36.2725 11.3431C36.7178 11.3431 37.0765 11.7019 37.0765 12.1472V23.0986C37.0765 23.5398 36.7178 23.9027 36.2725 23.9027L36.2683 23.8985Z" fill="#256782"/>
<path d="M36.2683 8.55994C35.8271 8.55994 35.4643 8.20123 35.4643 7.75592V5.63241C35.4643 5.19122 35.823 4.82837 36.2683 4.82837C36.7136 4.82837 37.0724 5.1871 37.0724 5.63241V7.75592C37.0724 8.19711 36.7136 8.55994 36.2683 8.55994Z" fill="#256782"/>
<path d="M19.9982 35.2046C19.5571 35.2046 19.1942 34.8459 19.1942 34.4006V27.2796C19.1942 26.8384 19.5529 26.4756 19.9982 26.4756C20.4436 26.4756 20.8023 26.8343 20.8023 27.2796V34.4006C20.8023 34.8417 20.4436 35.2046 19.9982 35.2046Z" fill="#256782"/>
<path d="M34.0789 4.51092H3.72739C3.28619 4.51092 2.92334 4.15219 2.92334 3.70688C2.92334 3.26156 3.28207 2.90283 3.72739 2.90283H34.0789C34.5201 2.90283 34.8829 3.26156 34.8829 3.70688C34.8829 4.15219 34.5242 4.51092 34.0789 4.51092Z" fill="#256782"/>
</svg>
