<svg width="37" height="37" viewBox="0 0 37 37" fill="none" xmlns="http://www.w3.org/2000/svg">
<path d="M11.2716 1.40715H25.7435C29.7005 3.80959 32.351 8.09965 32.351 13.0148C32.351 20.547 26.1541 26.6511 18.5075 26.6511C10.861 26.6511 4.66406 20.547 4.66406 13.0148C4.66406 8.09965 7.31454 3.80959 11.2716 1.40715Z" fill="#B0E55C"/>
<path d="M18.5079 1C15.4666 1.00327 12.4786 1.79797 9.83747 3.30597C7.19639 4.81397 4.99322 6.98335 3.44459 9.60083C1.89596 12.2183 1.05519 15.1937 1.00493 18.2346C0.954674 21.2755 1.69667 24.2771 3.15795 26.9443L1 36.0158L10.0715 33.8579C12.4113 35.1414 15.0135 35.8731 17.6793 35.997C20.3451 36.1208 23.0039 35.6337 25.4526 34.5727C27.9014 33.5117 30.0751 31.905 31.8078 29.8753C33.5405 27.8457 34.7863 25.4467 35.45 22.8619C36.1136 20.2771 36.1776 17.5747 35.637 14.9614C35.0964 12.348 33.9656 9.89283 32.3309 7.78342C30.6962 5.67401 28.6009 3.96622 26.2052 2.79054C23.8094 1.61486 21.1766 1.00241 18.5079 1ZM9.75396 8.95592H14.5259C14.7419 8.95592 14.949 9.04172 15.1017 9.19443C15.2544 9.34715 15.3402 9.55427 15.3402 9.77025C15.3135 10.8562 15.496 11.9372 15.8777 12.9542C16.042 13.2947 16.0782 13.683 15.9795 14.0479C15.8807 14.4129 15.6538 14.73 15.3402 14.9412L13.6708 16.5698C14.411 18.0153 15.3789 19.3323 16.5373 20.4704C17.6662 21.6477 18.9778 22.6349 20.4216 23.3938L22.0502 21.7245C22.8645 20.9102 23.2391 20.9102 24.0372 21.187C25.0542 21.5687 26.1352 21.7512 27.2212 21.7245C27.4339 21.7344 27.6354 21.8234 27.786 21.974C27.9366 22.1246 28.0256 22.326 28.0355 22.5388V27.3107C28.0256 27.5235 27.9366 27.7249 27.786 27.8756C27.6354 28.0262 27.4339 28.1151 27.2212 28.1251C22.431 27.9164 17.8904 25.9306 14.4852 22.5551C11.1044 19.1535 9.11768 14.6107 8.91521 9.8191C8.91715 9.59496 9.00539 9.38019 9.1616 9.21943C9.31781 9.05867 9.52996 8.9643 9.75396 8.95592Z" stroke="#256782" stroke-linecap="round" stroke-linejoin="round"/>
</svg>
