<svg width="40" height="40" viewBox="0 0 40 40" fill="none" xmlns="http://www.w3.org/2000/svg">
<path d="M11.6666 10V10.75C11.9174 10.75 12.1516 10.6247 12.2907 10.416L11.6666 10ZM14.0104 6.48433L13.3864 6.06831V6.06831L14.0104 6.48433ZM25.9895 6.48433L26.6136 6.06831L25.9895 6.48433ZM28.3333 10L27.7093 10.416C27.8484 10.6247 28.0826 10.75 28.3333 10.75V10ZM24.25 22.5C24.25 24.8472 22.3472 26.75 20 26.75V28.25C23.1756 28.25 25.75 25.6756 25.75 22.5H24.25ZM20 26.75C17.6528 26.75 15.75 24.8472 15.75 22.5H14.25C14.25 25.6756 16.8243 28.25 20 28.25V26.75ZM15.75 22.5C15.75 20.1528 17.6528 18.25 20 18.25V16.75C16.8243 16.75 14.25 19.3244 14.25 22.5H15.75ZM20 18.25C22.3472 18.25 24.25 20.1528 24.25 22.5H25.75C25.75 19.3244 23.1756 16.75 20 16.75V18.25ZM12.2907 10.416L14.6345 6.90036L13.3864 6.06831L11.0426 9.58397L12.2907 10.416ZM16.7839 5.75H23.216V4.25H16.7839V5.75ZM25.3655 6.90036L27.7093 10.416L28.9574 9.58397L26.6136 6.06831L25.3655 6.90036ZM23.216 5.75C24.0798 5.75 24.8864 6.18168 25.3655 6.90036L26.6136 6.06831C25.8563 4.93233 24.5813 4.25 23.216 4.25V5.75ZM14.6345 6.90036C15.1136 6.18168 15.9202 5.75 16.7839 5.75V4.25C15.4187 4.25 14.1437 4.93233 13.3864 6.06831L14.6345 6.90036ZM35.9166 16.6667V28.3333H37.4166V16.6667H35.9166ZM30 34.25H9.99998V35.75H30V34.25ZM4.08331 28.3333V16.6667H2.58331V28.3333H4.08331ZM9.99998 34.25C6.73229 34.25 4.08331 31.601 4.08331 28.3333H2.58331C2.58331 32.4294 5.90387 35.75 9.99998 35.75V34.25ZM35.9166 28.3333C35.9166 31.601 33.2677 34.25 30 34.25V35.75C34.0961 35.75 37.4166 32.4294 37.4166 28.3333H35.9166ZM30 10.75C33.2677 10.75 35.9166 13.399 35.9166 16.6667H37.4166C37.4166 12.5706 34.0961 9.25 30 9.25V10.75ZM9.99998 9.25C5.90387 9.25 2.58331 12.5706 2.58331 16.6667H4.08331C4.08331 13.399 6.7323 10.75 9.99998 10.75V9.25ZM9.99998 10.75H11.6666V9.25H9.99998V10.75ZM30 9.25H28.3333V10.75H30V9.25Z" fill="#256782"/>
<ellipse cx="20" cy="10" rx="1.66667" ry="1.66667" fill="#256782"/>
<circle cx="19.5" cy="21.5" r="3.5" fill="#FF6B00"/>
<path d="M26.307 31.9078C25.0255 32.2763 23.5918 32.0904 22.2666 32.0904C22.169 32.0904 22.0854 32.0919 22.0146 32.0942C21.5104 32.111 21.6555 32.1742 22.0146 32.0942C22.1106 32.0728 22.2219 32.0412 22.3403 31.9957C23.5426 31.5333 24.9356 31.7576 26.307 31.9078C27.2108 32.0068 28.1052 32.0736 28.9296 31.8904C29.578 31.7464 30.1716 31.941 29.1296 32.0799C28.0657 32.2218 26.9855 32.2799 25.9086 32.2799C24.3939 32.2799 23.093 32.8483 21.5824 32.8483H26.2454C26.8449 32.8483 27.5557 32.9721 28.098 32.7009C28.3093 32.5953 28.5303 32.513 28.7509 32.4379C28.7507 32.4345 28.7507 32.4309 28.7507 32.4273C28.7507 32.1409 29.2229 32.0694 29.6916 32.062C29.701 32.0571 29.7102 32.0525 29.7191 32.0483C29.8184 32.0013 29.8956 31.9732 29.9703 31.9545C30.1752 31.8289 30.4001 31.6577 30.5612 31.522C30.76 31.3546 31.0492 31.4126 31.2702 31.3751C31.562 31.1454 31.842 30.8955 32.0057 30.7483C32.2787 30.2729 32.3997 29.9245 32.4397 29.4369C32.4227 29.022 32.4559 28.7193 32.4559 28.9852C32.4559 29.1508 32.451 29.2994 32.4397 29.4369C32.4572 29.8619 32.5274 30.4046 32.7401 30.5747C32.8032 30.6252 32.8282 30.7305 32.8368 30.7915C32.8397 30.8626 32.8441 30.8428 32.8368 30.7915C32.8282 30.7305 32.8032 30.6252 32.7401 30.5747C32.5274 30.4046 32.4572 29.8619 32.4397 29.4369C32.3997 29.9245 32.2787 30.2729 32.0057 30.7483C32.0158 30.7391 32.0256 30.7304 32.0348 30.722C32.2162 30.5588 32.13 30.6488 31.9746 30.8019C31.9438 30.8543 31.9113 30.9082 31.8769 30.9641C31.2899 31.9181 31.4189 31.9249 30.5183 32.0896C30.5345 32.0901 30.5489 32.0904 30.5612 32.0904C31.0114 32.0904 31.1382 31.9387 31.5085 31.7536C31.5111 31.7523 31.524 31.7493 31.5445 31.745C31.8199 31.5999 32.0667 31.499 32.1506 31.5325C32.3138 31.5978 31.7028 31.7118 31.5445 31.745C31.1392 31.9587 30.672 32.2681 30.5717 32.3852C30.127 32.904 29.8195 32.8483 29.1612 32.8483C28.9541 32.8483 29.5726 32.7211 29.7191 32.5746C29.8991 32.3946 30.2058 32.1464 30.4559 32.101C30.4772 32.0971 30.498 32.0933 30.5183 32.0896C30.3745 32.0848 30.0827 32.0612 29.777 32.0613C29.6828 32.1072 29.5847 32.1485 29.4838 32.1873C29.1623 32.3967 28.7615 32.6926 28.7509 32.4379C28.5303 32.513 28.3093 32.5953 28.098 32.7009C27.5557 32.9721 26.8449 32.8483 26.2454 32.8483H21.5824C23.093 32.8483 24.3939 32.2799 25.9086 32.2799C26.9855 32.2799 28.0657 32.2218 29.1296 32.0799C30.1716 31.941 29.578 31.7464 28.9296 31.8904C28.1052 32.0736 27.2108 32.0068 26.307 31.9078Z" fill="#FF6B00"/>
<path d="M31.8875 12.196C32.5892 13.8919 33.4955 15.5456 33.8243 17.3538C33.9342 17.9584 34.0091 18.5598 34.119 19.1643C34.2754 20.0244 34.1804 21.0314 34.1611 21.9011C34.1427 22.7293 33.7886 23.4769 33.6348 24.28C33.5348 24.8023 33.622 25.2853 33.4453 25.7958C33.2275 26.4251 32.8916 27.0579 32.5401 27.5852C30.9691 29.9418 29.226 30.8208 26.6454 31.7957C25.2816 32.3109 23.7098 32.0904 22.2666 32.0904C21.288 32.0904 21.7174 32.2353 22.3403 31.9957C24.335 31.2285 26.8544 32.3516 28.9296 31.8904C29.578 31.7464 30.1716 31.941 29.1296 32.0799C28.0657 32.2218 26.9855 32.2799 25.9086 32.2799C24.3939 32.2799 23.093 32.8483 21.5824 32.8483C20.028 32.8483 24.6911 32.8483 26.2454 32.8483C26.8449 32.8483 27.5557 32.9721 28.098 32.7009C28.6609 32.4195 29.2924 32.3038 29.8033 32.0483C30.043 31.9284 30.3545 31.696 30.5612 31.522C30.8279 31.2974 31.2574 31.4786 31.4664 31.2904C31.5838 31.1848 32.4234 30.3723 32.0348 30.722C31.7048 31.0191 30.771 31.8589 30.3717 31.901C30.0815 31.9315 29.9721 31.9285 29.7191 32.0483C29.4058 32.1967 28.7507 32.7739 28.7507 32.4273C28.7507 31.9146 30.2645 32.0904 30.5612 32.0904C31.0114 32.0904 31.1382 31.9387 31.5085 31.7536C31.5315 31.7421 32.335 31.6063 32.1506 31.5325C31.9431 31.4495 30.7401 32.1887 30.5717 32.3852C30.127 32.904 29.8195 32.8483 29.1612 32.8483C28.9541 32.8483 29.5726 32.7211 29.7191 32.5746C29.8991 32.3946 30.2058 32.1464 30.4559 32.101C31.4251 31.9247 31.2767 31.9395 31.8769 30.9641C32.3317 30.2252 32.4559 29.8233 32.4559 28.9852C32.4559 28.447 32.3198 30.2384 32.7401 30.5747C32.8764 30.6837 32.8348 31.0486 32.8348 30.6694C32.8348 30.3536 32.8348 30.0378 32.8348 29.7221C32.8348 29.3309 32.9949 28.4758 32.6453 28.301" stroke="#FF6B00" stroke-width="2" stroke-linecap="round"/>
<path d="M33.0235 16.1749C32.7329 15.8029 32.5276 15.3055 32.0762 15.6065" stroke="#FF6B00" stroke-width="2" stroke-linecap="round"/>
<path d="M30.8354 12.5869C30.7377 12.169 31.2442 12.3527 30.8552 12.5749C30.8484 12.5788 30.8418 12.5828 30.8354 12.5869Z" fill="#FF6B00"/>
<path d="M31.1288 13.1434C30.3515 12.0618 31.3613 12.2857 30.8552 12.5749C30.4893 12.784 30.4638 13.4208 30.5709 13.796C30.6957 14.2327 31.3183 14.5353 31.3183 15.1328C31.3183 15.6759 31.6513 16.1141 31.792 16.6486C32.1822 18.1313 32.2657 19.7331 32.2657 21.3116C32.2657 21.6257 32.4564 24.6984 32.8341 23.9432" stroke="#FF6B00" stroke-width="2" stroke-linecap="round"/>
<path d="M32.8357 23.9432C32.4183 25.2392 31.3974 27.095 31.3199 28.4905C31.3164 28.5532 31.3199 28.9357 31.3199 28.68" stroke="#FF6B00" stroke-width="2" stroke-linecap="round"/>
</svg>
